<svg viewBox="0 0 330 200" xmlns="http://www.w3.org/2000/svg"><g><g><g><g><g><line x1="63.984375" y1="176" x2="58.984375" y2="176" style="visibility: inherit;" fill="rgb(0, 0, 0)" stroke="rgb(204, 204, 204)" stroke-width="1px"></line><line x1="63.984375" y1="156.44444444444443" x2="58.984375" y2="156.44444444444443" style="visibility: inherit;" fill="rgb(0, 0, 0)" stroke="rgb(204, 204, 204)" stroke-width="1px"></line><line x1="63.984375" y1="136.88888888888889" x2="58.984375" y2="136.88888888888889" style="visibility: inherit;" fill="rgb(0, 0, 0)" stroke="rgb(204, 204, 204)" stroke-width="1px"></line><line x1="63.984375" y1="117.33333333333331" x2="58.984375" y2="117.33333333333331" style="visibility: inherit;" fill="rgb(0, 0, 0)" stroke="rgb(204, 204, 204)" stroke-width="1px"></line><line x1="63.984375" y1="97.77777777777774" x2="58.984375" y2="97.77777777777774" style="visibility: inherit;" fill="rgb(0, 0, 0)" stroke="rgb(204, 204, 204)" stroke-width="1px"></line><line x1="63.984375" y1="78.22222222222224" x2="58.984375" y2="78.22222222222224" style="visibility: inherit;" fill="rgb(0, 0, 0)" stroke="rgb(204, 204, 204)" stroke-width="1px"></line><line x1="63.984375" y1="58.66666666666666" x2="58.984375" y2="58.66666666666666" style="visibility: inherit;" fill="rgb(0, 0, 0)" stroke="rgb(204, 204, 204)" stroke-width="1px"></line><line x1="63.984375" y1="39.111111111111086" x2="58.984375" y2="39.111111111111086" style="visibility: inherit;" fill="rgb(0, 0, 0)" stroke="rgb(204, 204, 204)" stroke-width="1px"></line><line x1="63.984375" y1="19.555555555555507" x2="58.984375" y2="19.555555555555507" style="visibility: inherit;" fill="rgb(0, 0, 0)" stroke="rgb(204, 204, 204)" stroke-width="1px"></line><line x1="63.984375" y1="0" x2="58.984375" y2="0" style="visibility: inherit;" fill="rgb(0, 0, 0)" stroke="rgb(204, 204, 204)" stroke-width="1px"></line></g><g transform="translate(53.984375, 0)"><text x="0" y="176" dx="0em" dy="0.3em" style="text-anchor: end; visibility: hidden; font-family: Roboto, sans-serif; font-size: 12px; font-weight: 200;" fill="rgb(33, 33, 33)" stroke="none" stroke-width="1px">0.026</text><text x="0" y="156.44444444444443" dx="0em" dy="0.3em" style="text-anchor: end; visibility: inherit; font-family: Roboto, sans-serif; font-size: 12px; font-weight: 200;" fill="rgb(33, 33, 33)" stroke="none" stroke-width="1px">0.028</text><text x="0" y="136.88888888888889" dx="0em" dy="0.3em" style="text-anchor: end; visibility: hidden; font-family: Roboto, sans-serif; font-size: 12px; font-weight: 200;" fill="rgb(33, 33, 33)" stroke="none" stroke-width="1px">0.03</text><text x="0" y="117.33333333333331" dx="0em" dy="0.3em" style="text-anchor: end; visibility: inherit; font-family: Roboto, sans-serif; font-size: 12px; font-weight: 200;" fill="rgb(33, 33, 33)" stroke="none" stroke-width="1px">0.032</text><text x="0" y="97.77777777777774" dx="0em" dy="0.3em" style="text-anchor: end; visibility: hidden; font-family: Roboto, sans-serif; font-size: 12px; font-weight: 200;" fill="rgb(33, 33, 33)" stroke="none" stroke-width="1px">0.034</text><text x="0" y="78.22222222222224" dx="0em" dy="0.3em" style="text-anchor: end; visibility: inherit; font-family: Roboto, sans-serif; font-size: 12px; font-weight: 200;" fill="rgb(33, 33, 33)" stroke="none" stroke-width="1px">0.036</text><text x="0" y="58.66666666666666" dx="0em" dy="0.3em" style="text-anchor: end; visibility: hidden; font-family: Roboto, sans-serif; font-size: 12px; font-weight: 200;" fill="rgb(33, 33, 33)" stroke="none" stroke-width="1px">0.038</text><text x="0" y="39.111111111111086" dx="0em" dy="0.3em" style="text-anchor: end; visibility: inherit; font-family: Roboto, sans-serif; font-size: 12px; font-weight: 200;" fill="rgb(33, 33, 33)" stroke="none" stroke-width="1px">0.04</text><text x="0" y="19.555555555555507" dx="0em" dy="0.3em" style="text-anchor: end; visibility: hidden; font-family: Roboto, sans-serif; font-size: 12px; font-weight: 200;" fill="rgb(33, 33, 33)" stroke="none" stroke-width="1px">0.042</text><text x="0" y="0" dx="0em" dy="0.3em" style="text-anchor: end; visibility: hidden; font-family: Roboto, sans-serif; font-size: 12px; font-weight: 200;" fill="rgb(33, 33, 33)" stroke="none" stroke-width="1px">0.044</text></g><line x1="63.984375" y1="0" x2="63.984375" y2="176" fill="rgb(0, 0, 0)" stroke="rgb(204, 204, 204)" stroke-width="1px"></line></g></g><g transform="translate(63, 0)" clip-path="url(#clip_0)"><clipPath id="clip_0"><rect width="266" height="176"></rect></clipPath><g><g><g><line x1="0" y1="0" x2="0" y2="176" fill="rgb(0, 0, 0)" stroke="rgb(66, 66, 66)" stroke-width="1px" opacity="0.25"></line><line x1="17.734375" y1="0" x2="17.734375" y2="176" fill="rgb(0, 0, 0)" stroke="rgb(66, 66, 66)" stroke-width="1px" opacity="0.25"></line><line x1="35.46875" y1="0" x2="35.46875" y2="176" fill="rgb(0, 0, 0)" stroke="rgb(66, 66, 66)" stroke-width="1px" opacity="0.25"></line><line x1="53.203125" y1="0" x2="53.203125" y2="176" fill="rgb(0, 0, 0)" stroke="rgb(66, 66, 66)" stroke-width="1px" opacity="0.25"></line><line x1="70.9375" y1="0" x2="70.9375" y2="176" fill="rgb(0, 0, 0)" stroke="rgb(66, 66, 66)" stroke-width="1px" opacity="0.25"></line><line x1="88.671875" y1="0" x2="88.671875" y2="176" fill="rgb(0, 0, 0)" stroke="rgb(66, 66, 66)" stroke-width="1px" opacity="0.25"></line><line x1="106.40625" y1="0" x2="106.40625" y2="176" fill="rgb(0, 0, 0)" stroke="rgb(66, 66, 66)" stroke-width="1px" opacity="0.25"></line><line x1="124.140625" y1="0" x2="124.140625" y2="176" fill="rgb(0, 0, 0)" stroke="rgb(66, 66, 66)" stroke-width="1px" opacity="0.25"></line><line x1="141.875" y1="0" x2="141.875" y2="176" fill="rgb(0, 0, 0)" stroke="rgb(66, 66, 66)" stroke-width="1px" opacity="0.25"></line><line x1="159.609375" y1="0" x2="159.609375" y2="176" fill="rgb(0, 0, 0)" stroke="rgb(66, 66, 66)" stroke-width="1px" opacity="0.25"></line><line x1="177.34375" y1="0" x2="177.34375" y2="176" fill="rgb(0, 0, 0)" stroke="rgb(66, 66, 66)" stroke-width="1px" opacity="0.25"></line><line x1="195.078125" y1="0" x2="195.078125" y2="176" fill="rgb(0, 0, 0)" stroke="rgb(66, 66, 66)" stroke-width="1px" opacity="0.25"></line><line x1="212.8125" y1="0" x2="212.8125" y2="176" fill="rgb(0, 0, 0)" stroke="rgb(66, 66, 66)" stroke-width="1px" opacity="0.25"></line><line x1="230.546875" y1="0" x2="230.546875" y2="176" fill="rgb(0, 0, 0)" stroke="rgb(66, 66, 66)" stroke-width="1px" opacity="0.25"></line><line x1="248.28125" y1="0" x2="248.28125" y2="176" fill="rgb(0, 0, 0)" stroke="rgb(66, 66, 66)" stroke-width="1px" opacity="0.25"></line><line x1="266.015625" y1="0" x2="266.015625" y2="176" fill="rgb(0, 0, 0)" stroke="rgb(66, 66, 66)" stroke-width="1px" opacity="0.25"></line></g><g><line x1="0" y1="176" x2="266.015625" y2="176" fill="rgb(0, 0, 0)" stroke="rgb(66, 66, 66)" stroke-width="1px" opacity="0.25"></line><line x1="0" y1="156.44444444444443" x2="266.015625" y2="156.44444444444443" fill="rgb(0, 0, 0)" stroke="rgb(66, 66, 66)" stroke-width="1px" opacity="0.25"></line><line x1="0" y1="136.88888888888889" x2="266.015625" y2="136.88888888888889" fill="rgb(0, 0, 0)" stroke="rgb(66, 66, 66)" stroke-width="1px" opacity="0.25"></line><line x1="0" y1="117.33333333333331" x2="266.015625" y2="117.33333333333331" fill="rgb(0, 0, 0)" stroke="rgb(66, 66, 66)" stroke-width="1px" opacity="0.25"></line><line x1="0" y1="97.77777777777774" x2="266.015625" y2="97.77777777777774" fill="rgb(0, 0, 0)" stroke="rgb(66, 66, 66)" stroke-width="1px" opacity="0.25"></line><line x1="0" y1="78.22222222222224" x2="266.015625" y2="78.22222222222224" fill="rgb(0, 0, 0)" stroke="rgb(66, 66, 66)" stroke-width="1px" opacity="0.25"></line><line x1="0" y1="58.66666666666666" x2="266.015625" y2="58.66666666666666" fill="rgb(0, 0, 0)" stroke="rgb(66, 66, 66)" stroke-width="1px" opacity="0.25"></line><line x1="0" y1="39.111111111111086" x2="266.015625" y2="39.111111111111086" fill="rgb(0, 0, 0)" stroke="rgb(66, 66, 66)" stroke-width="1px" opacity="0.25"></line><line x1="0" y1="19.555555555555507" x2="266.015625" y2="19.555555555555507" fill="rgb(0, 0, 0)" stroke="rgb(66, 66, 66)" stroke-width="1px" opacity="0.25"></line><line x1="0" y1="0" x2="266.015625" y2="0" fill="rgb(0, 0, 0)" stroke="rgb(66, 66, 66)" stroke-width="1px" opacity="0.25"></line></g></g></g><g><g><line x1="0" y1="430.2222222222223" x2="266.015625" y2="430.2222222222223" fill="rgb(0, 0, 0)" stroke="rgb(153, 153, 153)" stroke-width="1.5px"></line></g></g><g><g><line x1="17.734375" y1="0" x2="17.734375" y2="176" fill="rgb(0, 0, 0)" stroke="rgb(153, 153, 153)" stroke-width="1.5px"></line></g></g><g><g><g><g><g><path stroke="rgb(255, 112, 67)" stroke-width="2px" d="M17.734375,8.77873335944286L18.62109375,1.315375016795171L19.5078125,0.5560844052675638L20.39453125,-0.49824147725027856L21.28125,0.4023150538265625L22.16796875,8.76605308081125L23.0546875,6.667070824438932L23.94140625,9.630408265701982L24.828125,4.702269093305135L25.71484375,10.280940474914917L26.6015625,15.90449260825765L27.48828125,24.81112999828057L28.375000000000004,27.41012440101664L29.26171875,30.609524462969606L30.1484375,31.73886258124375L31.03515625,34.99911418008135L31.921875,36.485806502763324L32.80859375,40.899170807505705L33.6953125,39.86529927491266L34.58203125,42.76167889124944L35.46875,46.95445441230291L36.35546875,44.73533802034335L37.2421875,43.39151683038127L38.12890625,40.47865767650482L39.015625,37.49913938296456L39.90234375,35.582605453770235L40.7890625,31.96681004582439L41.67578125,28.124272824241014L42.5625,31.303654232073605L43.44921875,34.566790265422895L44.3359375,35.04113678490368L45.22265625,41.00869565826603L46.109375,43.262134523575455L46.99609375,44.63494548906003L47.8828125,46.81600466833911L48.76953125,48.55075508635246L49.65625,45.83207279783091L50.54296875,49.67209698266751L51.4296875,40.13613090878283L52.31640625,35.51671533608841L53.203125,38.1562273175294L54.08984375,38.017087413382924L54.9765625,47.22868159226388L55.86328125,49.00704768086243L56.75000000000001,50.50143528600366L57.63671875,50.37688398729879L58.5234375,43.04208495015936L59.41015625,48.84654591371754L60.296875,54.62445298640514L61.18359375,54.83409744254735L62.0703125,50.07239861205751L62.95703125,46.45750493090941L63.84375,51.75914469066483L64.73046875,50.986698158799115L65.6171875,54.29380682269718L66.50390625,52.28267996340244L67.390625,46.1268725709525L68.27734375,46.2215215977541L69.1640625,52.94682171575678L70.05078125,51.059709448080575L70.9375,45.40347868907122L71.82421875,49.56681843623135L72.7109375,51.26079006474644L73.59765625,17.352620866121534L74.484375,20.104427803622094L75.37109375,27.03137603743853L76.2578125,38.13585842589261L77.14453125,42.7499004552481L78.03125,45.041332218034086L78.91796875,32.41961401282724L79.8046875,34.53267694990554L80.69140625,36.9523042714108L81.578125,28.37682968563223L82.46484375,27.685455655838073L83.3515625,36.970872591738214L84.23828125,36.297264647300935L85.125,36.66370846472471L86.01171874999999,37.345371674683776L86.8984375,35.324395521527165L87.78515625,31.314860549000294L88.671875,40.329561695645005L89.55859375,34.90204338674465L90.4453125,25.77678490215034L91.33203125,32.84159803708488L92.21875,42.9022159489531L93.10546875,55.36880465092165L93.9921875,57.46076289393974L94.87890625,54.27808328483256L95.765625,49.80639503010359L96.65234375,51.55609341361409L97.5390625,32.52685999544765L98.42578125,21.558440942930325L99.3125,32.0825688742468L100.19921875,33.005932669678145L101.0859375,40.26777157436141L101.97265625,50.521247182457294L102.859375,45.94906617717721L103.74609375,41.69639047890964L104.6328125,43.99862837804062L105.51953125,44.3434595903518L106.40625,45.31408985036517L107.29296875,52.41889964487896L108.1796875,41.348976762109785L109.06640625,46.94174924950629L109.953125,41.88427276289951L110.83984375,39.34229740161916L111.7265625,31.31075128312436L112.61328125,14.308383880429636L113.50000000000001,30.745630227549785L114.38671875,42.33019861560498L115.2734375,51.429624838850856L116.16015625,54.42369735432981L117.046875,43.24444149185543L117.93359375,24.336197334027272L118.8203125,1.5130439928812045L119.70703125,12.21655565225271L120.59375,31.92608768907428L121.48046875,49.288488987091604L122.3671875,55.315806610520085L123.25390625,56.61887071981818L124.140625,47.03131032658489L125.02734375,39.896821857860175L125.9140625,33.60456208469701L126.80078125,45.31902156190082L127.6875,47.44320852573982L128.57421875,53.71334492838806L129.4609375,52.91575224206699L130.34765625,58.60174476242902L131.234375,54.637790004565716L132.12109375,52.46170736692943L133.0078125,41.986325584572796L133.89453125,35.493415389094075L134.78125,41.61324966104163L135.66796875,48.74330177662241L136.5546875,61.78241977480861L137.44140625,65.50827522575213L138.328125,70.6355157848823L139.21484375,73.0131254660398L140.1015625,69.73236412078666L140.98828125,64.19094396990853L141.875,74.06373643097669L142.76171875,72.94743843671776L143.6484375,74.82517010514859L144.53515625,66.31538445876987L145.421875,62.45561439735527L146.30859375,60.735578933348584L147.1953125,57.743627129058936L148.08203125,66.30526640432066L148.96875,74.65288594944796L149.85546875,86.64962014109007L150.7421875,94.90299665461043L151.62890625,94.4129873645111L152.515625,93.70258506659822L153.40234375,86.67859959384957L154.2890625,90.02602177065639L155.17578125,88.30262561825793L156.0625,88.40644854286707L156.94921875,81.371115240663L157.8359375,81.98857661213393L158.72265625,85.47797111215408L159.609375,87.03948138546937L160.49609375000003,94.42961157264175L161.3828125,102.04865328213685L162.26953125,101.27931934838165L163.15625,104.7156521533608L164.04296875,100.10525491828463L164.9296875,99.07306801673619L165.81640625,100.86231201924987L166.703125,92.33778207722169L167.58984375,91.24803331892076L168.4765625,99.4357701769163L169.36328125,101.18727068421714L170.25,99.04545613848978L171.13671875,98.2167297115023L172.02343749999997,101.70560480747523L172.91015625,108.59112741042841L173.796875,107.47871837444242L174.68359375,104.17160708430357L175.5703125,99.07570764522185L176.45703125,97.06760312047527L177.34375,100.65259217708795L178.23046875,110.59543789983154L179.1171875,115.69149700935895L180.00390625,111.04409567596244L180.890625,101.41977830511698L181.77734375,98.87572651574433L182.6640625,105.47120977588808L183.55078125,113.77820564000795L184.4375,111.63069681472307L185.32421875,111.83722171076172L186.2109375,115.51313372717459L187.09765625,117.63670998043183L187.984375,122.5739711013352L188.87109375,127.06260338215189L189.7578125,131.073284481031L190.64453125,133.48834044976766L191.53125,129.28627355442683L192.41796875,124.8697209490115L193.3046875,126.49253642555719L194.19140625,126.61517602335728L195.078125,125.2800424146532L195.96484375,124.0310505630633L196.8515625,126.76005933826862L197.73828125,126.3854753807593L198.625,126.78740360550536L199.51171875,128.10927752118116L200.3984375,126.61861613005216L201.28515625,127.90076237220785L202.171875,131.52267874591413L203.05859375,130.45714529343167L203.9453125,132.02491435467496L204.83203125,136.0362885432334L205.71875,143.32042139856034L206.60546875,145.3643960600377L207.4921875,148.93706471660087L208.37890625,149.29979369802282L209.265625,147.5575661260996L210.15234375,140.8001389847333L211.0390625,138.4951419400852L211.92578125,137.94484974085708L212.8125,140.20817516794125L213.69921875,141.57424221764197L214.5859375,143.188954102312L215.47265625,143.71645519772042L216.359375,146.99679747869558L217.24609375,147.65319071137236L218.1328125,149.0181260541478L219.01953125,145.41930291333858L219.90625,145.8349767045919L220.79296875,149.34060656528138L221.6796875,147.48891496625487L222.56640625,147.9858041761335L223.453125,150.36568091592622L224.33984375,155.00682911908154L225.2265625,154.43163401730834L226.11328125,152.1640823878393L227.00000000000003,152.7798877833811L227.88671875,157.58814348715376L228.7734375,158.9088081078003L229.66015625,161.09783112742124L230.546875,159.21023246025942L231.43359375,163.50774646824144L232.3203125,165.6957126572595L233.20703125,162.90886635935166L234.09375,165.8661506746893L234.98046875,166.3161424820434L235.8671875,164.60400232356986L236.75390625,161.91427117330483L237.640625,161.70460400295514L238.52734374999997,159.75009809852332L239.4140625,160.49525413664594L240.30078125,156.1174332246328L241.1875,160.33618975418344L242.07421875,163.51825023137053L242.9609375,160.31015159552803L243.84765625,166.88812546252512L244.734375,168.9294274375662L245.62109375,173.41490720598182L246.5078125,170.94341623915204L247.39453125,173.25946607933886L248.28125,179.11097650840412L257.1484375,179.2324477044697L258.03515625,175.42858510064815L258.921875,175.97575896821394L259.80859375,177.74762486919946L260.6953125,172.5633365495646L261.58203125,173.6477868030654L262.46875,171.0602034941758L263.35546875,175.36293102065062L264.2421875,177.00280487725072L265.12890625,175.44072672373747L266.015625,173.4675001103482L266.90234375,175.56806286036448" style="fill: none;" fill="none"></path></g></g></g></g><g opacity="0.2"><g><g><g><path stroke="rgb(255, 112, 67)" stroke-width="2px" d="M17.734375,8.778733359442802L18.62109375,-3.162639988793302L20.39453125,-1.7381287150913032L21.28125,1.5780816608004926L22.16796875,20.33611371782088L23.0546875,3.665492614110285L23.94140625,13.950982703102936L24.828125,-2.5657789442274392L25.71484375,18.56461731592811L26.6015625,24.28881560431585L27.48828125,38.122616555955645L28.375000000000004,31.300129837459966L29.26171875,35.40235659811229L30.1484375,33.43154226409063L31.03515625,39.887192196316164L31.921875,38.715215868420046L32.80859375,47.51809671190047L33.6953125,38.314649475945345L34.58203125,47.105983575185114L35.46875,53.243387752109086L36.35546875,41.4067364533742L37.2421875,41.37581157684324L38.12890625,36.10940345128375L39.015625,33.02988311979503L39.90234375,32.70781273312036L40.7890625,26.54312618573504L41.67578125,22.36047289106578L42.5625,36.0727234151628L43.44921875,39.46149251196117L44.3359375,35.75265640682642L45.22265625,49.96003278096514L46.109375,46.642292552524125L46.99609375,46.694161838955324L47.8828125,50.087593343522784L48.76953125,51.152880668640115L49.65625,41.75404940711126L50.54296875,55.43213322427535L51.4296875,25.8321818510691L52.31640625,28.587591992484185L53.203125,42.11549528439837L54.08984375,37.808377557330644L54.9765625,61.04607285393607L55.86328125,51.67459681298995L56.75000000000001,52.743016693327135L57.63671875,50.19005703926084L58.5234375,32.039886395136506L59.41015625,57.553237358729035L60.296875,63.291313595241945L61.18359375,55.148564126756426L62.0703125,42.92985036638045L62.95703125,41.03516440921358L63.84375,59.71160433027478L64.73046875,49.828028361002595L65.6171875,59.254469818539064L66.50390625,49.26598967446219L67.390625,36.89316148228113L68.27734375,46.36349513795638L69.1640625,63.03477189275952L70.05078125,48.22904104656641L70.9375,36.91913255055743L71.82421875,55.81182805697122L72.7109375,53.80174750751917L73.59765625,-33.5096329318153L74.484375,24.23213820987276L75.37109375,37.42179838816324L76.2578125,54.79258200857372L77.14453125,49.670963499281115L78.03125,48.47847986221311L78.91796875,13.48703670501707L79.8046875,37.70227135552298L80.69140625,40.58174525366888L81.578125,15.513617806964433L82.46484375,26.648394611146685L83.3515625,50.89899799558849L84.23828125,35.28685273064505L85.125,37.21337419086031L86.01171874999999,38.3678664896223L86.8984375,32.2929312917921L87.78515625,25.30055809020994L88.671875,53.85161341561209L89.55859375,26.760765923394075L90.4453125,12.088897175259039L91.33203125,43.43881773948667L92.21875,57.993142816755494L93.10546875,74.06868770387435L93.9921875,60.59870025846692L94.87890625,49.50406387117171L95.765625,43.09886264801023L96.65234375,54.180640988879716L97.5390625,3.9830098681979536L98.42578125,5.1058123641543744L99.3125,47.86876077122156L100.19921875,34.39097836282515L101.0859375,51.160529931386286L101.97265625,65.90146059460108L102.859375,39.09079466925726L103.74609375,35.317376931508356L104.6328125,47.451985226737115L105.51953125,44.86070640881854L106.40625,46.77003524038524L107.29296875,63.07611433664957L108.1796875,24.744092437956038L109.06640625,55.33090798060098L109.953125,34.29805803298948L110.83984375,35.52933435969881L111.7265625,19.263432105382257L112.61328125,-11.195167223612494L113.50000000000001,55.40149974822996L114.38671875,59.707051197687775L115.2734375,65.0787641737196L116.16015625,58.9148061275482L117.046875,26.47555769814383L117.93359375,-4.02616890271506L118.8203125,-32.72168601883786L119.70703125,28.27182314130992L120.59375,61.490385744306764L121.48046875,75.33209093411762L122.3671875,64.35678304566275L123.25390625,58.57346688376531L124.140625,32.64996973673502L125.02734375,29.19508915477327L125.9140625,24.16617242495216L126.80078125,62.890710777706545L127.6875,50.62948897149825L128.57421875,63.118549532360475L129.4609375,51.71936321258543L130.34765625,67.13073354297212L131.234375,48.69185786777071L132.12109375,49.19758341047496L133.0078125,26.273252911037847L133.89453125,25.754050095876032L134.78125,50.79300106896292L135.66796875,59.43837994999353L136.5546875,81.34109677208792L137.44140625,71.0970584021674L138.328125,78.32637662357752L139.21484375,76.579539987776L140.1015625,64.81122210290694L140.98828125,55.87881374359129L141.875,88.87292512257892L142.76171875,71.27299144532942L143.6484375,77.64176760779485L144.53515625,53.55070598920184L145.421875,56.6659593052334L146.30859375,58.15552573733858L147.1953125,53.255699422624346L148.08203125,79.14772531721326L148.96875,87.174315267139L149.85546875,104.64472142855325L150.7421875,107.28306142489114L151.62890625,93.67797342936197L152.515625,92.63698161972893L153.40234375,76.14262138472661L154.2890625,95.04715503586662L155.17578125,85.71753138966028L156.0625,88.56218292978073L156.94921875,70.81811528735689L157.8359375,82.91476866934033L158.72265625,90.7120628621843L159.609375,89.38174679544235L160.49609375000003,105.51480685340032L161.3828125,113.47721584637958L162.26953125,100.12531844774881L163.15625,109.87015136082965L164.04296875,93.18965906567041L164.9296875,97.52478766441344L165.81640625,103.54617802302042L166.703125,79.55098716417947L167.58984375,89.61341018146936L168.4765625,111.71737546390955L169.36328125,103.81452144516838L170.25,95.83273431989879L171.13671875,96.97364007102117L172.02343749999997,106.93891745143465L172.91015625,118.91941131485832L173.796875,105.81010482046337L174.68359375,99.21094014909531L175.5703125,91.43185848659937L176.45703125,94.05544633335535L177.34375,106.03007576200694L178.23046875,125.50970648394689L179.1171875,123.33558567365009L180.00390625,104.0729936758677L180.890625,86.98330224884879L181.77734375,95.05964883168537L182.6640625,115.36443466610376L183.55078125,126.23869943618773L184.4375,108.40943357679576L185.32421875,112.14700905481973L186.2109375,121.02700175179375L187.09765625,120.82207436031763L187.984375,129.97986278269025L188.87109375,133.79555180337692L189.7578125,137.0893061293496L190.64453125,137.1109244028727L191.53125,122.98317321141559L192.41796875,118.24489204088846L193.3046875,128.92675964037576L194.19140625,126.7991354200575L195.078125,123.27734200159708L195.96484375,122.15756278567842L196.8515625,130.8535725010766L197.73828125,125.82359944449529L198.625,127.39029594262439L199.51171875,130.09208839469483L200.3984375,124.38262404335869L201.28515625,129.8239817354414L202.171875,136.95555330647363L203.05859375,128.85884511470792L203.9453125,134.37656794653998L204.83203125,142.05334982607098L205.71875,154.24662068155075L206.60546875,148.4303580522537L207.4921875,154.29606770144568L208.37890625,149.84388717015582L209.265625,144.94422476821472L210.15234375,130.66399827268387L211.0390625,135.03764637311298L211.92578125,137.1194114420149L212.8125,143.60316330856745L213.69921875,143.62334279219309L214.5859375,145.61102192931702L215.47265625,144.507706840833L216.359375,151.91731090015833L217.24609375,148.6377805603875L218.1328125,151.06552906831104L219.01953125,140.0210682021247L219.90625,146.45848739147183L220.79296875,154.59905135631558L221.6796875,144.7113775677151L222.56640625,148.7311379909515L223.453125,153.93549602561524L224.33984375,161.96855142381455L225.2265625,153.5688413646486L226.11328125,148.7627549436357L227.00000000000003,153.7035958766937L227.88671875,164.80052704281275L228.7734375,160.88980503877002L229.66015625,164.3813656568527L230.546875,156.37883445951672L231.43359375,169.95401748021442L232.3203125,168.97766194078656L233.20703125,158.72859691249L234.09375,170.30207714769574L234.98046875,166.99113019307453L235.8671875,162.0357920858595L236.75390625,157.87967444790735L237.640625,161.39010324743057L238.52734374999997,156.81833924187555L239.4140625,161.61298819382984L240.30078125,149.55070185661313L241.1875,166.66432454850937L242.07421875,168.29134094715116L242.9609375,155.4980036417643L243.84765625,176.75508626302081L244.734375,171.9913804001278L245.62109375,180.14312685860529L246.5078125,167.23617978890735L247.39453125,176.73354083961908L250.94140625,177.1633747683631L251.828125,171.49456078476373L252.71484375,186.79798544777765L257.1484375,178.28144200642902L258.03515625,169.72279119491574L258.921875,176.79651976956262L259.80859375,180.40542372067767L260.6953125,164.78690407011243L261.58203125,175.27446218331653L262.46875,167.17882853084137L263.35546875,181.81702231036292L264.2421875,179.46261566215088L265.12890625,173.09760949346753L266.015625,170.50766019026437L266.90234375,178.71890698538886" style="fill: none;" fill="none"></path></g></g></g></g></g></g><g transform="translate(63, 176)" clip-path="url(#clip_1)"><clipPath id="clip_1"><rect width="266" height="24"></rect></clipPath><g><g><line x1="0" y1="0" x2="0" y2="5" style="visibility: inherit;" fill="rgb(0, 0, 0)" stroke="rgb(204, 204, 204)" stroke-width="1px"></line><line x1="17.734375" y1="0" x2="17.734375" y2="5" style="visibility: inherit;" fill="rgb(0, 0, 0)" stroke="rgb(204, 204, 204)" stroke-width="1px"></line><line x1="35.46875" y1="0" x2="35.46875" y2="5" style="visibility: inherit;" fill="rgb(0, 0, 0)" stroke="rgb(204, 204, 204)" stroke-width="1px"></line><line x1="53.203125" y1="0" x2="53.203125" y2="5" style="visibility: inherit;" fill="rgb(0, 0, 0)" stroke="rgb(204, 204, 204)" stroke-width="1px"></line><line x1="70.9375" y1="0" x2="70.9375" y2="5" style="visibility: inherit;" fill="rgb(0, 0, 0)" stroke="rgb(204, 204, 204)" stroke-width="1px"></line><line x1="88.671875" y1="0" x2="88.671875" y2="5" style="visibility: inherit;" fill="rgb(0, 0, 0)" stroke="rgb(204, 204, 204)" stroke-width="1px"></line><line x1="106.40625" y1="0" x2="106.40625" y2="5" style="visibility: inherit;" fill="rgb(0, 0, 0)" stroke="rgb(204, 204, 204)" stroke-width="1px"></line><line x1="124.140625" y1="0" x2="124.140625" y2="5" style="visibility: inherit;" fill="rgb(0, 0, 0)" stroke="rgb(204, 204, 204)" stroke-width="1px"></line><line x1="141.875" y1="0" x2="141.875" y2="5" style="visibility: inherit;" fill="rgb(0, 0, 0)" stroke="rgb(204, 204, 204)" stroke-width="1px"></line><line x1="159.609375" y1="0" x2="159.609375" y2="5" style="visibility: inherit;" fill="rgb(0, 0, 0)" stroke="rgb(204, 204, 204)" stroke-width="1px"></line><line x1="177.34375" y1="0" x2="177.34375" y2="5" style="visibility: inherit;" fill="rgb(0, 0, 0)" stroke="rgb(204, 204, 204)" stroke-width="1px"></line><line x1="195.078125" y1="0" x2="195.078125" y2="5" style="visibility: inherit;" fill="rgb(0, 0, 0)" stroke="rgb(204, 204, 204)" stroke-width="1px"></line><line x1="212.8125" y1="0" x2="212.8125" y2="5" style="visibility: inherit;" fill="rgb(0, 0, 0)" stroke="rgb(204, 204, 204)" stroke-width="1px"></line><line x1="230.546875" y1="0" x2="230.546875" y2="5" style="visibility: inherit;" fill="rgb(0, 0, 0)" stroke="rgb(204, 204, 204)" stroke-width="1px"></line><line x1="248.28125" y1="0" x2="248.28125" y2="5" style="visibility: inherit;" fill="rgb(0, 0, 0)" stroke="rgb(204, 204, 204)" stroke-width="1px"></line><line x1="266.015625" y1="0" x2="266.015625" y2="5" style="visibility: inherit;" fill="rgb(0, 0, 0)" stroke="rgb(204, 204, 204)" stroke-width="1px"></line></g><g transform="translate(0, 8)"><text x="0" y="0" dx="0em" dy="0.95em" style="text-anchor: middle; visibility: hidden; font-family: Roboto, sans-serif; font-size: 12px; font-weight: 200;" fill="rgb(33, 33, 33)" stroke="none" stroke-width="1px">-20</text><text x="17.734375" y="0" dx="0em" dy="0.95em" style="text-anchor: middle; visibility: inherit; font-family: Roboto, sans-serif; font-size: 12px; font-weight: 200;" fill="rgb(33, 33, 33)" stroke="none" stroke-width="1px">0</text><text x="35.46875" y="0" dx="0em" dy="0.95em" style="text-anchor: middle; visibility: hidden; font-family: Roboto, sans-serif; font-size: 12px; font-weight: 200;" fill="rgb(33, 33, 33)" stroke="none" stroke-width="1px">20</text><text x="53.203125" y="0" dx="0em" dy="0.95em" style="text-anchor: middle; visibility: inherit; font-family: Roboto, sans-serif; font-size: 12px; font-weight: 200;" fill="rgb(33, 33, 33)" stroke="none" stroke-width="1px">40</text><text x="70.9375" y="0" dx="0em" dy="0.95em" style="text-anchor: middle; visibility: hidden; font-family: Roboto, sans-serif; font-size: 12px; font-weight: 200;" fill="rgb(33, 33, 33)" stroke="none" stroke-width="1px">60</text><text x="88.671875" y="0" dx="0em" dy="0.95em" style="text-anchor: middle; visibility: inherit; font-family: Roboto, sans-serif; font-size: 12px; font-weight: 200;" fill="rgb(33, 33, 33)" stroke="none" stroke-width="1px">80</text><text x="106.40625" y="0" dx="0em" dy="0.95em" style="text-anchor: middle; visibility: hidden; font-family: Roboto, sans-serif; font-size: 12px; font-weight: 200;" fill="rgb(33, 33, 33)" stroke="none" stroke-width="1px">100</text><text x="124.140625" y="0" dx="0em" dy="0.95em" style="text-anchor: middle; visibility: inherit; font-family: Roboto, sans-serif; font-size: 12px; font-weight: 200;" fill="rgb(33, 33, 33)" stroke="none" stroke-width="1px">120</text><text x="141.875" y="0" dx="0em" dy="0.95em" style="text-anchor: middle; visibility: hidden; font-family: Roboto, sans-serif; font-size: 12px; font-weight: 200;" fill="rgb(33, 33, 33)" stroke="none" stroke-width="1px">140</text><text x="159.609375" y="0" dx="0em" dy="0.95em" style="text-anchor: middle; visibility: inherit; font-family: Roboto, sans-serif; font-size: 12px; font-weight: 200;" fill="rgb(33, 33, 33)" stroke="none" stroke-width="1px">160</text><text x="177.34375" y="0" dx="0em" dy="0.95em" style="text-anchor: middle; visibility: hidden; font-family: Roboto, sans-serif; font-size: 12px; font-weight: 200;" fill="rgb(33, 33, 33)" stroke="none" stroke-width="1px">180</text><text x="195.078125" y="0" dx="0em" dy="0.95em" style="text-anchor: middle; visibility: inherit; font-family: Roboto, sans-serif; font-size: 12px; font-weight: 200;" fill="rgb(33, 33, 33)" stroke="none" stroke-width="1px">200</text><text x="212.8125" y="0" dx="0em" dy="0.95em" style="text-anchor: middle; visibility: hidden; font-family: Roboto, sans-serif; font-size: 12px; font-weight: 200;" fill="rgb(33, 33, 33)" stroke="none" stroke-width="1px">220</text><text x="230.546875" y="0" dx="0em" dy="0.95em" style="text-anchor: middle; visibility: inherit; font-family: Roboto, sans-serif; font-size: 12px; font-weight: 200;" fill="rgb(33, 33, 33)" stroke="none" stroke-width="1px">240</text><text x="248.28125" y="0" dx="0em" dy="0.95em" style="text-anchor: middle; visibility: hidden; font-family: Roboto, sans-serif; font-size: 12px; font-weight: 200;" fill="rgb(33, 33, 33)" stroke="none" stroke-width="1px">260</text><text x="266.015625" y="0" dx="0em" dy="0.95em" style="text-anchor: middle; visibility: hidden; font-family: Roboto, sans-serif; font-size: 12px; font-weight: 200;" fill="rgb(33, 33, 33)" stroke="none" stroke-width="1px">280</text></g><line x1="0" y1="0" x2="266.015625" y2="0" fill="rgb(0, 0, 0)" stroke="rgb(204, 204, 204)" stroke-width="1px"></line></g></g></g></g></svg>