<svg viewBox="0 0 330 200" xmlns="http://www.w3.org/2000/svg"><g><g><g><g><g><line x1="63.984375" y1="176" x2="58.984375" y2="176" style="visibility: inherit;" fill="rgb(0, 0, 0)" stroke="rgb(204, 204, 204)" stroke-width="1px"></line><line x1="63.984375" y1="158.39999999999998" x2="58.984375" y2="158.39999999999998" style="visibility: inherit;" fill="rgb(0, 0, 0)" stroke="rgb(204, 204, 204)" stroke-width="1px"></line><line x1="63.984375" y1="140.8" x2="58.984375" y2="140.8" style="visibility: inherit;" fill="rgb(0, 0, 0)" stroke="rgb(204, 204, 204)" stroke-width="1px"></line><line x1="63.984375" y1="123.19999999999999" x2="58.984375" y2="123.19999999999999" style="visibility: inherit;" fill="rgb(0, 0, 0)" stroke="rgb(204, 204, 204)" stroke-width="1px"></line><line x1="63.984375" y1="105.60000000000002" x2="58.984375" y2="105.60000000000002" style="visibility: inherit;" fill="rgb(0, 0, 0)" stroke="rgb(204, 204, 204)" stroke-width="1px"></line><line x1="63.984375" y1="88" x2="58.984375" y2="88" style="visibility: inherit;" fill="rgb(0, 0, 0)" stroke="rgb(204, 204, 204)" stroke-width="1px"></line><line x1="63.984375" y1="70.39999999999998" x2="58.984375" y2="70.39999999999998" style="visibility: inherit;" fill="rgb(0, 0, 0)" stroke="rgb(204, 204, 204)" stroke-width="1px"></line><line x1="63.984375" y1="52.800000000000026" x2="58.984375" y2="52.800000000000026" style="visibility: inherit;" fill="rgb(0, 0, 0)" stroke="rgb(204, 204, 204)" stroke-width="1px"></line><line x1="63.984375" y1="35.20000000000003" x2="58.984375" y2="35.20000000000003" style="visibility: inherit;" fill="rgb(0, 0, 0)" stroke="rgb(204, 204, 204)" stroke-width="1px"></line><line x1="63.984375" y1="17.600000000000016" x2="58.984375" y2="17.600000000000016" style="visibility: inherit;" fill="rgb(0, 0, 0)" stroke="rgb(204, 204, 204)" stroke-width="1px"></line><line x1="63.984375" y1="0" x2="58.984375" y2="0" style="visibility: inherit;" fill="rgb(0, 0, 0)" stroke="rgb(204, 204, 204)" stroke-width="1px"></line></g><g transform="translate(53.984375, 0)"><text x="0" y="176" dx="0em" dy="0.3em" style="text-anchor: end; visibility: hidden; font-family: Roboto, sans-serif; font-size: 12px; font-weight: 200;" fill="rgb(33, 33, 33)" stroke="none" stroke-width="1px">0.022</text><text x="0" y="158.39999999999998" dx="0em" dy="0.3em" style="text-anchor: end; visibility: inherit; font-family: Roboto, sans-serif; font-size: 12px; font-weight: 200;" fill="rgb(33, 33, 33)" stroke="none" stroke-width="1px">0.024</text><text x="0" y="140.8" dx="0em" dy="0.3em" style="text-anchor: end; visibility: hidden; font-family: Roboto, sans-serif; font-size: 12px; font-weight: 200;" fill="rgb(33, 33, 33)" stroke="none" stroke-width="1px">0.026</text><text x="0" y="123.19999999999999" dx="0em" dy="0.3em" style="text-anchor: end; visibility: inherit; font-family: Roboto, sans-serif; font-size: 12px; font-weight: 200;" fill="rgb(33, 33, 33)" stroke="none" stroke-width="1px">0.028</text><text x="0" y="105.60000000000002" dx="0em" dy="0.3em" style="text-anchor: end; visibility: hidden; font-family: Roboto, sans-serif; font-size: 12px; font-weight: 200;" fill="rgb(33, 33, 33)" stroke="none" stroke-width="1px">0.03</text><text x="0" y="88" dx="0em" dy="0.3em" style="text-anchor: end; visibility: inherit; font-family: Roboto, sans-serif; font-size: 12px; font-weight: 200;" fill="rgb(33, 33, 33)" stroke="none" stroke-width="1px">0.032</text><text x="0" y="70.39999999999998" dx="0em" dy="0.3em" style="text-anchor: end; visibility: hidden; font-family: Roboto, sans-serif; font-size: 12px; font-weight: 200;" fill="rgb(33, 33, 33)" stroke="none" stroke-width="1px">0.034</text><text x="0" y="52.800000000000026" dx="0em" dy="0.3em" style="text-anchor: end; visibility: inherit; font-family: Roboto, sans-serif; font-size: 12px; font-weight: 200;" fill="rgb(33, 33, 33)" stroke="none" stroke-width="1px">0.036</text><text x="0" y="35.20000000000003" dx="0em" dy="0.3em" style="text-anchor: end; visibility: hidden; font-family: Roboto, sans-serif; font-size: 12px; font-weight: 200;" fill="rgb(33, 33, 33)" stroke="none" stroke-width="1px">0.038</text><text x="0" y="17.600000000000016" dx="0em" dy="0.3em" style="text-anchor: end; visibility: inherit; font-family: Roboto, sans-serif; font-size: 12px; font-weight: 200;" fill="rgb(33, 33, 33)" stroke="none" stroke-width="1px">0.04</text><text x="0" y="0" dx="0em" dy="0.3em" style="text-anchor: end; visibility: hidden; font-family: Roboto, sans-serif; font-size: 12px; font-weight: 200;" fill="rgb(33, 33, 33)" stroke="none" stroke-width="1px">0.042</text></g><line x1="63.984375" y1="0" x2="63.984375" y2="176" fill="rgb(0, 0, 0)" stroke="rgb(204, 204, 204)" stroke-width="1px"></line></g></g><g transform="translate(63, 0)" clip-path="url(#clip_0)"><clipPath id="clip_0"><rect width="266" height="176"></rect></clipPath><g><g><g><line x1="0" y1="0" x2="0" y2="176" fill="rgb(0, 0, 0)" stroke="rgb(66, 66, 66)" stroke-width="1px" opacity="0.25"></line><line x1="17.734375" y1="0" x2="17.734375" y2="176" fill="rgb(0, 0, 0)" stroke="rgb(66, 66, 66)" stroke-width="1px" opacity="0.25"></line><line x1="35.46875" y1="0" x2="35.46875" y2="176" fill="rgb(0, 0, 0)" stroke="rgb(66, 66, 66)" stroke-width="1px" opacity="0.25"></line><line x1="53.203125" y1="0" x2="53.203125" y2="176" fill="rgb(0, 0, 0)" stroke="rgb(66, 66, 66)" stroke-width="1px" opacity="0.25"></line><line x1="70.9375" y1="0" x2="70.9375" y2="176" fill="rgb(0, 0, 0)" stroke="rgb(66, 66, 66)" stroke-width="1px" opacity="0.25"></line><line x1="88.671875" y1="0" x2="88.671875" y2="176" fill="rgb(0, 0, 0)" stroke="rgb(66, 66, 66)" stroke-width="1px" opacity="0.25"></line><line x1="106.40625" y1="0" x2="106.40625" y2="176" fill="rgb(0, 0, 0)" stroke="rgb(66, 66, 66)" stroke-width="1px" opacity="0.25"></line><line x1="124.140625" y1="0" x2="124.140625" y2="176" fill="rgb(0, 0, 0)" stroke="rgb(66, 66, 66)" stroke-width="1px" opacity="0.25"></line><line x1="141.875" y1="0" x2="141.875" y2="176" fill="rgb(0, 0, 0)" stroke="rgb(66, 66, 66)" stroke-width="1px" opacity="0.25"></line><line x1="159.609375" y1="0" x2="159.609375" y2="176" fill="rgb(0, 0, 0)" stroke="rgb(66, 66, 66)" stroke-width="1px" opacity="0.25"></line><line x1="177.34375" y1="0" x2="177.34375" y2="176" fill="rgb(0, 0, 0)" stroke="rgb(66, 66, 66)" stroke-width="1px" opacity="0.25"></line><line x1="195.078125" y1="0" x2="195.078125" y2="176" fill="rgb(0, 0, 0)" stroke="rgb(66, 66, 66)" stroke-width="1px" opacity="0.25"></line><line x1="212.8125" y1="0" x2="212.8125" y2="176" fill="rgb(0, 0, 0)" stroke="rgb(66, 66, 66)" stroke-width="1px" opacity="0.25"></line><line x1="230.546875" y1="0" x2="230.546875" y2="176" fill="rgb(0, 0, 0)" stroke="rgb(66, 66, 66)" stroke-width="1px" opacity="0.25"></line><line x1="248.28125" y1="0" x2="248.28125" y2="176" fill="rgb(0, 0, 0)" stroke="rgb(66, 66, 66)" stroke-width="1px" opacity="0.25"></line><line x1="266.015625" y1="0" x2="266.015625" y2="176" fill="rgb(0, 0, 0)" stroke="rgb(66, 66, 66)" stroke-width="1px" opacity="0.25"></line></g><g><line x1="0" y1="176" x2="266.015625" y2="176" fill="rgb(0, 0, 0)" stroke="rgb(66, 66, 66)" stroke-width="1px" opacity="0.25"></line><line x1="0" y1="158.39999999999998" x2="266.015625" y2="158.39999999999998" fill="rgb(0, 0, 0)" stroke="rgb(66, 66, 66)" stroke-width="1px" opacity="0.25"></line><line x1="0" y1="140.8" x2="266.015625" y2="140.8" fill="rgb(0, 0, 0)" stroke="rgb(66, 66, 66)" stroke-width="1px" opacity="0.25"></line><line x1="0" y1="123.19999999999999" x2="266.015625" y2="123.19999999999999" fill="rgb(0, 0, 0)" stroke="rgb(66, 66, 66)" stroke-width="1px" opacity="0.25"></line><line x1="0" y1="105.60000000000002" x2="266.015625" y2="105.60000000000002" fill="rgb(0, 0, 0)" stroke="rgb(66, 66, 66)" stroke-width="1px" opacity="0.25"></line><line x1="0" y1="88" x2="266.015625" y2="88" fill="rgb(0, 0, 0)" stroke="rgb(66, 66, 66)" stroke-width="1px" opacity="0.25"></line><line x1="0" y1="70.39999999999998" x2="266.015625" y2="70.39999999999998" fill="rgb(0, 0, 0)" stroke="rgb(66, 66, 66)" stroke-width="1px" opacity="0.25"></line><line x1="0" y1="52.800000000000026" x2="266.015625" y2="52.800000000000026" fill="rgb(0, 0, 0)" stroke="rgb(66, 66, 66)" stroke-width="1px" opacity="0.25"></line><line x1="0" y1="35.20000000000003" x2="266.015625" y2="35.20000000000003" fill="rgb(0, 0, 0)" stroke="rgb(66, 66, 66)" stroke-width="1px" opacity="0.25"></line><line x1="0" y1="17.600000000000016" x2="266.015625" y2="17.600000000000016" fill="rgb(0, 0, 0)" stroke="rgb(66, 66, 66)" stroke-width="1px" opacity="0.25"></line><line x1="0" y1="0" x2="266.015625" y2="0" fill="rgb(0, 0, 0)" stroke="rgb(66, 66, 66)" stroke-width="1px" opacity="0.25"></line></g></g></g><g><g><line x1="0" y1="369.5999999999999" x2="266.015625" y2="369.5999999999999" fill="rgb(0, 0, 0)" stroke="rgb(153, 153, 153)" stroke-width="1.5px"></line></g></g><g><g><line x1="17.734375" y1="0" x2="17.734375" y2="176" fill="rgb(0, 0, 0)" stroke="rgb(153, 153, 153)" stroke-width="1.5px"></line></g></g><g><g><g><g><g><path stroke="rgb(255, 112, 67)" stroke-width="2px" d="M24.828125,-13.8634328433076L25.71484375,0.9927175829438486L26.6015625,-1.2635479473369067L27.48828125,1.305094423802844L28.375000000000004,8.586043461694656L29.26171875,13.046868133390769L30.1484375,17.636775691657867L31.03515625,25.812736019877597L31.921875,23.822428582584955L32.80859375,26.322825660387522L33.6953125,30.57588580830638L34.58203125,35.64427296848066L35.46875,37.02475318708188L36.35546875,37.491871448219285L37.2421875,46.320099738387164L38.12890625,48.375359052307275L39.015625,52.999519273195496L39.90234375,51.80176429791159L40.7890625,58.21256499327386L41.67578125,57.7936610703371L42.5625,61.724810532676564L43.44921875,63.07451759371424L44.3359375,68.12172342129908L45.22265625,73.75235210878168L46.109375,77.87767302079396L46.99609375,78.81974333531738L47.8828125,81.73538980970481L48.76953125,80.22979777982424L49.65625,85.9522296325689L50.54296875,87.18849699815159L51.4296875,89.12463078644119L52.31640625,92.2842045119693L53.203125,92.46338206134448L54.08984375,92.97045547987908L54.9765625,92.2695601796623L55.86328125,93.99640490177485L56.75000000000001,99.38185849223808L57.63671875,98.3838991691103L58.5234375,102.49900578332029L59.41015625,101.1962073640059L60.296875,100.82564121699016L61.18359375,101.12179041276028L62.0703125,101.16797599059157L62.95703125,104.17466430224945L63.84375,102.56081403945385L64.73046875,104.7507751944952L65.6171875,107.65559091587804L66.50390625,105.72093337070832L67.390625,108.83982267196187L68.27734375,112.4921340979057L69.1640625,110.80497102003781L70.05078125,112.63532060659833L70.9375,109.22008724616103L71.82421875,105.06660882238224L72.7109375,109.58754943611427L73.59765625,108.32238353015306L74.484375,112.13500136805371L75.37109375,110.23411553545466L76.2578125,113.19716653730677L77.14453125,115.5670041793955L78.03125,116.84244086708858L78.91796875,119.02229633788008L79.8046875,119.47516191756569L80.69140625,121.43284871075058L81.578125,120.75371878322065L82.46484375,125.27417344675129L83.3515625,124.99583147302664L84.23828125,124.54157898864386L85.125,124.91648950839779L86.01171874999999,127.4874668900057L86.8984375,124.18094962977676L87.78515625,125.61934783782549L88.671875,128.29621272758237L89.55859375,128.20491654798744L90.4453125,129.64392839387273L91.33203125,131.69407709190378L92.21875,127.75039731353002L93.10546875,128.7284296351044L93.9921875,131.05480283721496L94.87890625,129.91866615190634L95.765625,127.52543318971713L96.65234375,126.86095215740633L97.5390625,129.70343537487287L98.42578125,131.6918125257355L99.3125,128.77101504477628L100.19921875,134.13737975402336L101.0859375,133.46113620545665L101.97265625,135.56978579012272L102.859375,134.69611710338427L103.74609375,137.43235075729268L104.6328125,141.60382234249815L105.51953125,140.3015620565075L106.40625,140.12319508169043L107.29296875,142.55878327711793L108.1796875,142.5253828336261L109.06640625,137.20123013314378L109.953125,137.17488393102153L110.83984375,137.10701751300135L111.7265625,137.79789937727713L112.61328125,136.42614643331208L113.50000000000001,135.4421323237171L114.38671875,133.53664512260855L115.2734375,138.29779904618323L116.16015625,134.97620592078246L117.046875,133.02523138499663L117.93359375,134.99593005643132L118.8203125,133.93939256945757L119.70703125,132.81463655638402L120.59375,131.1365449858171L121.48046875,132.15100990965738L122.3671875,130.12297488233312L123.25390625,128.75343961346667L124.140625,133.6350371672423L125.02734375,130.52522621594136L125.9140625,131.3348485019342L126.80078125,129.00665261903617L127.6875,127.57420535659324L128.57421875,128.17353445396145L129.4609375,129.54041524234603L130.34765625,130.89899717511648L131.234375,128.06150754178714L132.12109375,132.15705439022273L133.0078125,134.08249866349158L133.89453125,136.22451356519855L134.78125,128.63024631660934L135.66796875,130.46935256672953L136.5546875,132.70913833828598L137.44140625,131.19136815578838L138.328125,132.20114743537368L139.21484375,133.94110125438368L140.1015625,129.93582580409048L140.98828125,125.67081468297003L141.875,127.6144918882427L142.76171875,129.73831597111092L143.6484375,134.57693301165978L144.53515625,134.2200224216275L145.421875,134.6832357678111L146.30859375,132.13324882228943L147.1953125,135.68342490219933L148.08203125,139.58411632552063L148.96875,140.8740404425521L149.85546875,139.81401423325892L150.7421875,140.67422052687857L151.62890625,141.1884560279039L152.515625,140.1423566062443L153.40234375,138.00096904988246L154.2890625,142.741268456907L155.17578125,139.58826000984368L156.0625,140.01882356343185L156.94921875,138.5823101779074L157.8359375,135.10847177626195L158.72265625,134.44198144031466L159.609375,136.95060138078273L160.49609375000003,137.31276368243536L161.3828125,138.71696656670002L162.26953125,141.3781005151619L163.15625,142.13902243659194L164.04296875,136.9947679226714L164.9296875,136.72097807080254L165.81640625,138.53045653909865L166.703125,138.96952084309117L167.58984375,136.00966063741598L168.4765625,130.78557707073543L169.36328125,133.2443224883214L170.25,136.58194666720243L171.13671875,140.103704094987L172.02343749999997,139.07613080984405L172.91015625,139.70791373637945L173.796875,143.30291276209138L174.68359375,144.04454505105363L175.5703125,143.05326825415818L176.45703125,137.6645125176652L177.34375,137.27907959617042L178.23046875,134.98026346204796L179.1171875,139.63090508841344L180.00390625,140.03856220282833L180.890625,142.59721143745017L181.77734375,141.54682778181214L182.6640625,144.77288816727145L183.55078125,143.13913362477388L184.4375,141.23324579986433L185.32421875,143.05358386869725L186.2109375,144.3910198881358L187.09765625,146.22154896939577L187.984375,148.22317004135124L188.87109375,150.37481054264825L189.7578125,148.8026058614166L190.64453125,148.1908851492352L191.53125,146.6609899442164L192.41796875,147.4537842083435L193.3046875,150.63386416724092L194.19140625,144.13276070768097L195.078125,151.3691585589317L195.96484375,148.07127206139964L196.8515625,147.7248228967977L197.73828125,148.09679811124755L198.625,150.31887328222248L199.51171875,149.3761370777777L200.3984375,153.29826317070075L201.28515625,151.35261163853494L202.171875,148.4599732169085L203.05859375,154.17926765969833L203.9453125,149.68201632434986L204.83203125,151.4951482387475L205.71875,146.7026763207967L206.60546875,147.177478461698L207.4921875,152.283775289795L208.37890625,148.52406133648228L209.265625,146.7799161901264L210.15234375,151.91763511122394L211.0390625,149.92274049056252L211.92578125,150.80834172685553L212.8125,152.58321033072235L213.69921875,155.12912273735856L214.5859375,156.08711919028198L215.47265625,162.36081013225697L216.359375,160.12116207804192L217.24609375,159.35616891697592L218.1328125,160.6637462110254L219.01953125,160.4121343833764L219.90625,158.29128324881552L220.79296875,159.33739742216682L221.6796875,157.59568056450615L222.56640625,155.5796705209394L223.453125,152.9234228112209L224.33984375,157.80093735563207L225.2265625,159.17124510113865L226.11328125,162.40216728868765L227.00000000000003,159.09479064478086L227.88671875,161.02774224956994L228.7734375,161.6657591860304L229.66015625,164.7397613788134L230.546875,160.79324899342572L231.43359375,161.27575846092054L232.3203125,162.81863299594016L233.20703125,159.0512334226709L234.09375,157.54388108009942L234.98046875,161.2476805958441L235.8671875,161.06813988407197L236.75390625,163.82763013672675L237.640625,161.62638461489587L238.52734374999997,164.1794534343428L239.4140625,161.78185971128622L240.30078125,161.19149962632463L241.1875,164.2503474591291L242.07421875,163.70367573965288L242.9609375,162.08777726691181L243.84765625,159.47371444345245L244.734375,162.75355431819398L245.62109375,165.36593048444055L246.5078125,165.02200211924708L247.39453125,169.0312259211683L248.28125,165.32160080996417L249.16796875,163.56026930765665L250.0546875,167.29113958809586L250.94140625,162.337962609135L251.828125,158.90492389536072L252.71484375,166.18291630945305L253.6015625,168.40222495199265L254.48828125,172.55727977634086L255.375,171.99723401952156L256.26171875,170.337912521889L257.1484375,171.44422556527266L258.03515625,163.90033698062783L258.921875,164.08641737926416L259.80859375,167.39218793289908L260.6953125,162.72125063167243L261.58203125,167.56969065801042L262.46875,168.1645685776218L263.35546875,169.3779526820269L264.2421875,168.05235934916055L265.12890625,168.55603830255816L266.015625,170.92870659016222L266.90234375,167.51734626759676" style="fill: none;" fill="none"></path></g></g></g></g><g opacity="0.2"><g><g><g><path stroke="rgb(255, 112, 67)" stroke-width="2px" d="M23.0546875,-7.163933897018417L23.94140625,0.34864745140077247L24.828125,-14.216280961036666L25.71484375,23.052369570732132L26.6015625,-4.627482080459579L27.48828125,5.14407954216005L28.375000000000004,19.483693456649796L29.26171875,19.729365921020523L30.1484375,24.516241765022293L31.03515625,38.070910191535965L31.921875,20.837809658050553L32.80859375,30.072786426544205L33.6953125,36.95482811927797L34.58203125,43.24639043807985L35.46875,39.09539780616762L36.35546875,38.19253346920015L37.2421875,59.5622678756714L38.12890625,51.458223676681534L39.015625,59.93572673797609L39.90234375,50.00513694286348L40.7890625,67.82874963283541L41.67578125,57.16530582904817L42.5625,67.62153110504153L43.44921875,65.09907743930819L44.3359375,75.69253048896792L45.22265625,82.19829401969912L46.109375,84.06565389633181L46.99609375,80.23284873962405L47.8828125,86.10885939598086L48.76953125,77.97140977382662L49.65625,94.53587732315066L50.54296875,89.04289803504946L51.4296875,92.02883145809176L52.31640625,97.02356508970263L53.203125,92.73214838504794L54.08984375,93.73106560707095L54.9765625,91.21821722984316L55.86328125,96.58667198419573L56.75000000000001,107.46003887653353L57.63671875,96.88696018457415L58.5234375,108.67166570425036L59.41015625,99.24200973510744L60.296875,100.26979199647906L61.18359375,101.56601420640948L62.0703125,101.23725435733797L62.95703125,108.68469676971438L63.84375,100.14003864526751L64.73046875,108.03571692705157L65.6171875,112.01281449794772L66.50390625,102.81894705295565L67.390625,113.51815662384033L68.27734375,117.97060123682022L69.1640625,108.27422640323641L70.05078125,115.38084498643875L70.9375,104.0972372055054L71.82421875,98.8363911867142L72.7109375,116.36896035671234L73.59765625,106.42463467121127L74.484375,117.85392812490463L75.37109375,107.38278678655627L76.2578125,117.64174304008483L77.14453125,119.12176064252853L78.03125,118.75559589862823L78.91796875,122.29207954406738L79.8046875,120.15446028709411L80.69140625,124.36937890052795L81.578125,119.7350238919258L82.46484375,132.0548554420471L83.3515625,124.57831851243972L84.23828125,123.8602002620697L85.125,125.47885528802871L86.01171874999999,131.3439329624176L86.8984375,119.22117373943328L87.78515625,127.77694514989852L88.671875,132.3115100622177L89.55859375,128.06797227859497L90.4453125,131.80244616270065L91.33203125,134.76930013895034L92.21875,121.83487764596939L93.10546875,130.19547811746597L93.9921875,134.54436264038085L94.87890625,128.21446112394332L95.765625,123.93558374643325L96.65234375,125.86423060894012L97.5390625,133.9671602010727L98.42578125,134.6743782520294L99.3125,124.38981882333755L100.19921875,142.18692681789398L101.0859375,132.4467708826065L101.97265625,138.73276016712188L102.859375,133.3856140732765L103.74609375,141.53670123815536L104.6328125,147.8610297203064L105.51953125,138.3481716275215L106.40625,139.85564461946487L107.29296875,146.2121655702591L108.1796875,142.47528216838836L109.06640625,129.21500108242034L109.953125,137.13536462783813L110.83984375,137.00521788597106L111.7265625,138.8342221736908L112.61328125,134.3685170173645L113.50000000000001,133.96611115932464L114.38671875,130.67841432094573L115.2734375,145.43952993154525L116.16015625,129.99381623268127L117.046875,130.0987695813179L117.93359375,137.95197806358337L118.8203125,132.35458633899688L119.70703125,131.12750253677368L120.59375,128.61940762996673L121.48046875,133.67270729541778L122.3671875,127.08092234134674L123.25390625,126.69913671016693L124.140625,140.95743349790573L125.02734375,125.86050978899002L125.9140625,132.54928193092346L126.80078125,125.51435879468917L127.6875,125.42553446292877L128.57421875,129.07252810001373L129.4609375,131.59073642492294L130.34765625,132.93687007427215L131.234375,123.80527309179305L132.12109375,138.30037466287612L133.0078125,136.97066507339477L133.89453125,139.43753591775894L134.78125,117.23884544372558L135.66796875,133.22801194190978L136.5546875,136.06881699562072L137.44140625,128.91471288204193L138.328125,133.71581635475158L139.21484375,136.5510319828987L140.1015625,123.92791262865066L140.98828125,119.27329800128936L141.875,130.53000769615173L142.76171875,132.9240520954132L143.6484375,141.83485857248306L144.53515625,133.68465653657913L145.421875,135.37805578708648L146.30859375,128.30826840400695L147.1953125,141.0086890220642L148.08203125,145.43515346050262L148.96875,142.8089266180992L149.85546875,138.22397491931915L150.7421875,141.96452996730804L151.62890625,141.95980927944183L152.515625,138.57320747375488L153.40234375,134.78888771533965L154.2890625,149.85171756744384L155.17578125,134.85874733924865L156.0625,140.66466889381408L156.94921875,136.4275400996208L157.8359375,129.8977141737938L158.72265625,133.44224593639373L159.609375,140.71353129148483L160.49609375000003,137.8560071349144L161.3828125,140.82327089309692L162.26953125,145.36980143785476L163.15625,143.28040531873702L164.04296875,129.2783861517906L164.9296875,136.31029329299926L165.81640625,141.2446742415428L166.703125,139.6281172990799L167.58984375,131.5698703289032L168.4765625,122.94945172071456L169.36328125,136.9324406147003L170.25,141.58838293552398L171.13671875,145.3863402366638L172.02343749999997,137.53477088212966L172.91015625,140.65558812618255L173.796875,148.69541130065917L174.68359375,145.15699348449706L175.5703125,141.566353058815L176.45703125,129.58137891292571L177.34375,136.70093021392822L178.23046875,131.53203926086425L179.1171875,146.60686752796173L180.00390625,140.65004787445068L180.890625,146.43518528938293L181.77734375,139.9712522983551L182.6640625,149.6119787454605L183.55078125,140.68850181102752L184.4375,138.3744140625L185.32421875,145.7840909719467L186.2109375,146.39717391729354L187.09765625,148.9673425912857L187.984375,151.22560164928436L188.87109375,153.6022712945938L189.7578125,146.4442988395691L190.64453125,147.27330408096313L191.53125,144.36614713668823L192.41796875,148.64297560453414L193.3046875,155.403984105587L194.19140625,134.38110551834106L195.078125,162.2237553358078L195.96484375,143.12444231510162L196.8515625,147.2051491498947L197.73828125,148.65476093292236L198.625,153.65198603868484L199.51171875,147.96203277111053L200.3984375,159.1814523100853L201.28515625,148.43413434028625L202.171875,144.12101558446884L203.05859375,162.75820932388305L203.9453125,142.9361393213272L204.83203125,154.21484611034393L205.71875,139.51396844387054L206.60546875,147.88968167304992L207.4921875,159.94322053194045L208.37890625,142.8844904065132L209.265625,144.1636984705925L210.15234375,159.62421349287033L211.0390625,146.9303985595703L211.92578125,152.136743581295L212.8125,155.24551323652267L213.69921875,158.94799134731292L214.5859375,157.52411386966705L215.47265625,171.77134654521942L216.359375,156.76168999671935L217.24609375,158.2086791753769L218.1328125,162.6251121520996L219.01953125,160.03471664190292L219.90625,155.11000654697418L220.79296875,160.90656868219375L221.6796875,154.98310527801513L222.56640625,152.5556554555893L223.453125,148.93905124664306L224.33984375,165.11720917224883L225.2265625,161.2267067193985L226.11328125,167.24855057001113L227.00000000000003,154.13372567892074L227.88671875,163.92716965675353L228.7734375,162.62278459072112L229.66015625,169.35076466798782L230.546875,154.87348041534423L231.43359375,161.99952266216278L232.3203125,165.13294479846954L233.20703125,153.40013406276702L234.09375,155.2828525662422L234.98046875,166.80337986946105L235.8671875,160.79882881641387L236.75390625,167.96686551570892L237.640625,158.3245163321495L238.52734374999997,168.00905666351318L239.4140625,158.18546912670135L240.30078125,160.3059594988823L241.1875,168.83861920833587L242.07421875,162.88366816043853L242.9609375,159.6639295578003L243.84765625,155.5526202082634L244.734375,167.67331413030624L245.62109375,169.28449473381042L246.5078125,164.5061095714569L247.39453125,175.04506162405013L248.28125,159.75716314315795L249.16796875,160.9182720541954L250.0546875,172.88744500875472L250.94140625,154.90819714069366L251.828125,153.7553658246994L252.71484375,177.09990493059155L253.6015625,171.731187915802L254.48828125,178.78986201286313L255.375,171.1571653842926L256.26171875,167.8489302754402L257.1484375,173.1036951303482L258.03515625,152.58450410366058L258.921875,164.36553797721862L259.80859375,172.35084376335143L260.6953125,155.71484467983245L261.58203125,174.8423506975174L262.46875,169.05688545703887L263.35546875,171.19802883863449L264.2421875,166.06396934986114L265.12890625,169.31155673265457L266.015625,174.4877090215683L266.90234375,162.40030578374862" style="fill: none;" fill="none"></path></g></g></g></g></g></g><g transform="translate(63, 176)" clip-path="url(#clip_1)"><clipPath id="clip_1"><rect width="266" height="24"></rect></clipPath><g><g><line x1="0" y1="0" x2="0" y2="5" style="visibility: inherit;" fill="rgb(0, 0, 0)" stroke="rgb(204, 204, 204)" stroke-width="1px"></line><line x1="17.734375" y1="0" x2="17.734375" y2="5" style="visibility: inherit;" fill="rgb(0, 0, 0)" stroke="rgb(204, 204, 204)" stroke-width="1px"></line><line x1="35.46875" y1="0" x2="35.46875" y2="5" style="visibility: inherit;" fill="rgb(0, 0, 0)" stroke="rgb(204, 204, 204)" stroke-width="1px"></line><line x1="53.203125" y1="0" x2="53.203125" y2="5" style="visibility: inherit;" fill="rgb(0, 0, 0)" stroke="rgb(204, 204, 204)" stroke-width="1px"></line><line x1="70.9375" y1="0" x2="70.9375" y2="5" style="visibility: inherit;" fill="rgb(0, 0, 0)" stroke="rgb(204, 204, 204)" stroke-width="1px"></line><line x1="88.671875" y1="0" x2="88.671875" y2="5" style="visibility: inherit;" fill="rgb(0, 0, 0)" stroke="rgb(204, 204, 204)" stroke-width="1px"></line><line x1="106.40625" y1="0" x2="106.40625" y2="5" style="visibility: inherit;" fill="rgb(0, 0, 0)" stroke="rgb(204, 204, 204)" stroke-width="1px"></line><line x1="124.140625" y1="0" x2="124.140625" y2="5" style="visibility: inherit;" fill="rgb(0, 0, 0)" stroke="rgb(204, 204, 204)" stroke-width="1px"></line><line x1="141.875" y1="0" x2="141.875" y2="5" style="visibility: inherit;" fill="rgb(0, 0, 0)" stroke="rgb(204, 204, 204)" stroke-width="1px"></line><line x1="159.609375" y1="0" x2="159.609375" y2="5" style="visibility: inherit;" fill="rgb(0, 0, 0)" stroke="rgb(204, 204, 204)" stroke-width="1px"></line><line x1="177.34375" y1="0" x2="177.34375" y2="5" style="visibility: inherit;" fill="rgb(0, 0, 0)" stroke="rgb(204, 204, 204)" stroke-width="1px"></line><line x1="195.078125" y1="0" x2="195.078125" y2="5" style="visibility: inherit;" fill="rgb(0, 0, 0)" stroke="rgb(204, 204, 204)" stroke-width="1px"></line><line x1="212.8125" y1="0" x2="212.8125" y2="5" style="visibility: inherit;" fill="rgb(0, 0, 0)" stroke="rgb(204, 204, 204)" stroke-width="1px"></line><line x1="230.546875" y1="0" x2="230.546875" y2="5" style="visibility: inherit;" fill="rgb(0, 0, 0)" stroke="rgb(204, 204, 204)" stroke-width="1px"></line><line x1="248.28125" y1="0" x2="248.28125" y2="5" style="visibility: inherit;" fill="rgb(0, 0, 0)" stroke="rgb(204, 204, 204)" stroke-width="1px"></line><line x1="266.015625" y1="0" x2="266.015625" y2="5" style="visibility: inherit;" fill="rgb(0, 0, 0)" stroke="rgb(204, 204, 204)" stroke-width="1px"></line></g><g transform="translate(0, 8)"><text x="0" y="0" dx="0em" dy="0.95em" style="text-anchor: middle; visibility: hidden; font-family: Roboto, sans-serif; font-size: 12px; font-weight: 200;" fill="rgb(33, 33, 33)" stroke="none" stroke-width="1px">-20</text><text x="17.734375" y="0" dx="0em" dy="0.95em" style="text-anchor: middle; visibility: inherit; font-family: Roboto, sans-serif; font-size: 12px; font-weight: 200;" fill="rgb(33, 33, 33)" stroke="none" stroke-width="1px">0</text><text x="35.46875" y="0" dx="0em" dy="0.95em" style="text-anchor: middle; visibility: hidden; font-family: Roboto, sans-serif; font-size: 12px; font-weight: 200;" fill="rgb(33, 33, 33)" stroke="none" stroke-width="1px">20</text><text x="53.203125" y="0" dx="0em" dy="0.95em" style="text-anchor: middle; visibility: inherit; font-family: Roboto, sans-serif; font-size: 12px; font-weight: 200;" fill="rgb(33, 33, 33)" stroke="none" stroke-width="1px">40</text><text x="70.9375" y="0" dx="0em" dy="0.95em" style="text-anchor: middle; visibility: hidden; font-family: Roboto, sans-serif; font-size: 12px; font-weight: 200;" fill="rgb(33, 33, 33)" stroke="none" stroke-width="1px">60</text><text x="88.671875" y="0" dx="0em" dy="0.95em" style="text-anchor: middle; visibility: inherit; font-family: Roboto, sans-serif; font-size: 12px; font-weight: 200;" fill="rgb(33, 33, 33)" stroke="none" stroke-width="1px">80</text><text x="106.40625" y="0" dx="0em" dy="0.95em" style="text-anchor: middle; visibility: hidden; font-family: Roboto, sans-serif; font-size: 12px; font-weight: 200;" fill="rgb(33, 33, 33)" stroke="none" stroke-width="1px">100</text><text x="124.140625" y="0" dx="0em" dy="0.95em" style="text-anchor: middle; visibility: inherit; font-family: Roboto, sans-serif; font-size: 12px; font-weight: 200;" fill="rgb(33, 33, 33)" stroke="none" stroke-width="1px">120</text><text x="141.875" y="0" dx="0em" dy="0.95em" style="text-anchor: middle; visibility: hidden; font-family: Roboto, sans-serif; font-size: 12px; font-weight: 200;" fill="rgb(33, 33, 33)" stroke="none" stroke-width="1px">140</text><text x="159.609375" y="0" dx="0em" dy="0.95em" style="text-anchor: middle; visibility: inherit; font-family: Roboto, sans-serif; font-size: 12px; font-weight: 200;" fill="rgb(33, 33, 33)" stroke="none" stroke-width="1px">160</text><text x="177.34375" y="0" dx="0em" dy="0.95em" style="text-anchor: middle; visibility: hidden; font-family: Roboto, sans-serif; font-size: 12px; font-weight: 200;" fill="rgb(33, 33, 33)" stroke="none" stroke-width="1px">180</text><text x="195.078125" y="0" dx="0em" dy="0.95em" style="text-anchor: middle; visibility: inherit; font-family: Roboto, sans-serif; font-size: 12px; font-weight: 200;" fill="rgb(33, 33, 33)" stroke="none" stroke-width="1px">200</text><text x="212.8125" y="0" dx="0em" dy="0.95em" style="text-anchor: middle; visibility: hidden; font-family: Roboto, sans-serif; font-size: 12px; font-weight: 200;" fill="rgb(33, 33, 33)" stroke="none" stroke-width="1px">220</text><text x="230.546875" y="0" dx="0em" dy="0.95em" style="text-anchor: middle; visibility: inherit; font-family: Roboto, sans-serif; font-size: 12px; font-weight: 200;" fill="rgb(33, 33, 33)" stroke="none" stroke-width="1px">240</text><text x="248.28125" y="0" dx="0em" dy="0.95em" style="text-anchor: middle; visibility: hidden; font-family: Roboto, sans-serif; font-size: 12px; font-weight: 200;" fill="rgb(33, 33, 33)" stroke="none" stroke-width="1px">260</text><text x="266.015625" y="0" dx="0em" dy="0.95em" style="text-anchor: middle; visibility: hidden; font-family: Roboto, sans-serif; font-size: 12px; font-weight: 200;" fill="rgb(33, 33, 33)" stroke="none" stroke-width="1px">280</text></g><line x1="0" y1="0" x2="266.015625" y2="0" fill="rgb(0, 0, 0)" stroke="rgb(204, 204, 204)" stroke-width="1px"></line></g></g></g></g></svg>