<svg viewBox="0 0 330 200" xmlns="http://www.w3.org/2000/svg"><g><g><g><g><g><line x1="74.78125" y1="176" x2="69.78125" y2="176" style="visibility: inherit;" fill="rgb(0, 0, 0)" stroke="rgb(204, 204, 204)" stroke-width="1px"></line><line x1="74.78125" y1="163.42857142857142" x2="69.78125" y2="163.42857142857142" style="visibility: inherit;" fill="rgb(0, 0, 0)" stroke="rgb(204, 204, 204)" stroke-width="1px"></line><line x1="74.78125" y1="150.85714285714286" x2="69.78125" y2="150.85714285714286" style="visibility: inherit;" fill="rgb(0, 0, 0)" stroke="rgb(204, 204, 204)" stroke-width="1px"></line><line x1="74.78125" y1="138.28571428571428" x2="69.78125" y2="138.28571428571428" style="visibility: inherit;" fill="rgb(0, 0, 0)" stroke="rgb(204, 204, 204)" stroke-width="1px"></line><line x1="74.78125" y1="125.71428571428572" x2="69.78125" y2="125.71428571428572" style="visibility: inherit;" fill="rgb(0, 0, 0)" stroke="rgb(204, 204, 204)" stroke-width="1px"></line><line x1="74.78125" y1="113.14285714285714" x2="69.78125" y2="113.14285714285714" style="visibility: inherit;" fill="rgb(0, 0, 0)" stroke="rgb(204, 204, 204)" stroke-width="1px"></line><line x1="74.78125" y1="100.57142857142857" x2="69.78125" y2="100.57142857142857" style="visibility: inherit;" fill="rgb(0, 0, 0)" stroke="rgb(204, 204, 204)" stroke-width="1px"></line><line x1="74.78125" y1="87.99999999999999" x2="69.78125" y2="87.99999999999999" style="visibility: inherit;" fill="rgb(0, 0, 0)" stroke="rgb(204, 204, 204)" stroke-width="1px"></line><line x1="74.78125" y1="75.42857142857142" x2="69.78125" y2="75.42857142857142" style="visibility: inherit;" fill="rgb(0, 0, 0)" stroke="rgb(204, 204, 204)" stroke-width="1px"></line><line x1="74.78125" y1="62.85714285714287" x2="69.78125" y2="62.85714285714287" style="visibility: inherit;" fill="rgb(0, 0, 0)" stroke="rgb(204, 204, 204)" stroke-width="1px"></line><line x1="74.78125" y1="50.285714285714285" x2="69.78125" y2="50.285714285714285" style="visibility: inherit;" fill="rgb(0, 0, 0)" stroke="rgb(204, 204, 204)" stroke-width="1px"></line><line x1="74.78125" y1="37.714285714285694" x2="69.78125" y2="37.714285714285694" style="visibility: inherit;" fill="rgb(0, 0, 0)" stroke="rgb(204, 204, 204)" stroke-width="1px"></line><line x1="74.78125" y1="25.14285714285711" x2="69.78125" y2="25.14285714285711" style="visibility: inherit;" fill="rgb(0, 0, 0)" stroke="rgb(204, 204, 204)" stroke-width="1px"></line><line x1="74.78125" y1="12.571428571428585" x2="69.78125" y2="12.571428571428585" style="visibility: inherit;" fill="rgb(0, 0, 0)" stroke="rgb(204, 204, 204)" stroke-width="1px"></line><line x1="74.78125" y1="0" x2="69.78125" y2="0" style="visibility: inherit;" fill="rgb(0, 0, 0)" stroke="rgb(204, 204, 204)" stroke-width="1px"></line></g><g transform="translate(64.78125, 0)"><text x="0" y="176" dx="0em" dy="0.3em" style="text-anchor: end; visibility: hidden; font-family: Roboto, sans-serif; font-size: 12px; font-weight: 200;" fill="rgb(33, 33, 33)" stroke="none" stroke-width="1px">4.5e-3</text><text x="0" y="163.42857142857142" dx="0em" dy="0.3em" style="text-anchor: end; visibility: inherit; font-family: Roboto, sans-serif; font-size: 12px; font-weight: 200;" fill="rgb(33, 33, 33)" stroke="none" stroke-width="1px">5e-3</text><text x="0" y="150.85714285714286" dx="0em" dy="0.3em" style="text-anchor: end; visibility: hidden; font-family: Roboto, sans-serif; font-size: 12px; font-weight: 200;" fill="rgb(33, 33, 33)" stroke="none" stroke-width="1px">5.5e-3</text><text x="0" y="138.28571428571428" dx="0em" dy="0.3em" style="text-anchor: end; visibility: inherit; font-family: Roboto, sans-serif; font-size: 12px; font-weight: 200;" fill="rgb(33, 33, 33)" stroke="none" stroke-width="1px">6e-3</text><text x="0" y="125.71428571428572" dx="0em" dy="0.3em" style="text-anchor: end; visibility: hidden; font-family: Roboto, sans-serif; font-size: 12px; font-weight: 200;" fill="rgb(33, 33, 33)" stroke="none" stroke-width="1px">6.5e-3</text><text x="0" y="113.14285714285714" dx="0em" dy="0.3em" style="text-anchor: end; visibility: inherit; font-family: Roboto, sans-serif; font-size: 12px; font-weight: 200;" fill="rgb(33, 33, 33)" stroke="none" stroke-width="1px">7e-3</text><text x="0" y="100.57142857142857" dx="0em" dy="0.3em" style="text-anchor: end; visibility: hidden; font-family: Roboto, sans-serif; font-size: 12px; font-weight: 200;" fill="rgb(33, 33, 33)" stroke="none" stroke-width="1px">7.5e-3</text><text x="0" y="87.99999999999999" dx="0em" dy="0.3em" style="text-anchor: end; visibility: inherit; font-family: Roboto, sans-serif; font-size: 12px; font-weight: 200;" fill="rgb(33, 33, 33)" stroke="none" stroke-width="1px">8e-3</text><text x="0" y="75.42857142857142" dx="0em" dy="0.3em" style="text-anchor: end; visibility: hidden; font-family: Roboto, sans-serif; font-size: 12px; font-weight: 200;" fill="rgb(33, 33, 33)" stroke="none" stroke-width="1px">8.5e-3</text><text x="0" y="62.85714285714287" dx="0em" dy="0.3em" style="text-anchor: end; visibility: inherit; font-family: Roboto, sans-serif; font-size: 12px; font-weight: 200;" fill="rgb(33, 33, 33)" stroke="none" stroke-width="1px">9e-3</text><text x="0" y="50.285714285714285" dx="0em" dy="0.3em" style="text-anchor: end; visibility: hidden; font-family: Roboto, sans-serif; font-size: 12px; font-weight: 200;" fill="rgb(33, 33, 33)" stroke="none" stroke-width="1px">9.5e-3</text><text x="0" y="37.714285714285694" dx="0em" dy="0.3em" style="text-anchor: end; visibility: inherit; font-family: Roboto, sans-serif; font-size: 12px; font-weight: 200;" fill="rgb(33, 33, 33)" stroke="none" stroke-width="1px">0.01</text><text x="0" y="25.14285714285711" dx="0em" dy="0.3em" style="text-anchor: end; visibility: hidden; font-family: Roboto, sans-serif; font-size: 12px; font-weight: 200;" fill="rgb(33, 33, 33)" stroke="none" stroke-width="1px">0.0105</text><text x="0" y="12.571428571428585" dx="0em" dy="0.3em" style="text-anchor: end; visibility: inherit; font-family: Roboto, sans-serif; font-size: 12px; font-weight: 200;" fill="rgb(33, 33, 33)" stroke="none" stroke-width="1px">0.011</text><text x="0" y="0" dx="0em" dy="0.3em" style="text-anchor: end; visibility: hidden; font-family: Roboto, sans-serif; font-size: 12px; font-weight: 200;" fill="rgb(33, 33, 33)" stroke="none" stroke-width="1px">0.0115</text></g><line x1="74.78125" y1="0" x2="74.78125" y2="176" fill="rgb(0, 0, 0)" stroke="rgb(204, 204, 204)" stroke-width="1px"></line></g></g><g transform="translate(74, 0)" clip-path="url(#clip_0)"><clipPath id="clip_0"><rect width="255" height="176"></rect></clipPath><g><g><g><line x1="0" y1="0" x2="0" y2="176" fill="rgb(0, 0, 0)" stroke="rgb(66, 66, 66)" stroke-width="1px" opacity="0.25"></line><line x1="17.014583333333334" y1="0" x2="17.014583333333334" y2="176" fill="rgb(0, 0, 0)" stroke="rgb(66, 66, 66)" stroke-width="1px" opacity="0.25"></line><line x1="34.02916666666667" y1="0" x2="34.02916666666667" y2="176" fill="rgb(0, 0, 0)" stroke="rgb(66, 66, 66)" stroke-width="1px" opacity="0.25"></line><line x1="51.04375" y1="0" x2="51.04375" y2="176" fill="rgb(0, 0, 0)" stroke="rgb(66, 66, 66)" stroke-width="1px" opacity="0.25"></line><line x1="68.05833333333334" y1="0" x2="68.05833333333334" y2="176" fill="rgb(0, 0, 0)" stroke="rgb(66, 66, 66)" stroke-width="1px" opacity="0.25"></line><line x1="85.07291666666666" y1="0" x2="85.07291666666666" y2="176" fill="rgb(0, 0, 0)" stroke="rgb(66, 66, 66)" stroke-width="1px" opacity="0.25"></line><line x1="102.0875" y1="0" x2="102.0875" y2="176" fill="rgb(0, 0, 0)" stroke="rgb(66, 66, 66)" stroke-width="1px" opacity="0.25"></line><line x1="119.10208333333334" y1="0" x2="119.10208333333334" y2="176" fill="rgb(0, 0, 0)" stroke="rgb(66, 66, 66)" stroke-width="1px" opacity="0.25"></line><line x1="136.11666666666667" y1="0" x2="136.11666666666667" y2="176" fill="rgb(0, 0, 0)" stroke="rgb(66, 66, 66)" stroke-width="1px" opacity="0.25"></line><line x1="153.13125" y1="0" x2="153.13125" y2="176" fill="rgb(0, 0, 0)" stroke="rgb(66, 66, 66)" stroke-width="1px" opacity="0.25"></line><line x1="170.14583333333331" y1="0" x2="170.14583333333331" y2="176" fill="rgb(0, 0, 0)" stroke="rgb(66, 66, 66)" stroke-width="1px" opacity="0.25"></line><line x1="187.16041666666666" y1="0" x2="187.16041666666666" y2="176" fill="rgb(0, 0, 0)" stroke="rgb(66, 66, 66)" stroke-width="1px" opacity="0.25"></line><line x1="204.175" y1="0" x2="204.175" y2="176" fill="rgb(0, 0, 0)" stroke="rgb(66, 66, 66)" stroke-width="1px" opacity="0.25"></line><line x1="221.18958333333333" y1="0" x2="221.18958333333333" y2="176" fill="rgb(0, 0, 0)" stroke="rgb(66, 66, 66)" stroke-width="1px" opacity="0.25"></line><line x1="238.20416666666668" y1="0" x2="238.20416666666668" y2="176" fill="rgb(0, 0, 0)" stroke="rgb(66, 66, 66)" stroke-width="1px" opacity="0.25"></line><line x1="255.21875" y1="0" x2="255.21875" y2="176" fill="rgb(0, 0, 0)" stroke="rgb(66, 66, 66)" stroke-width="1px" opacity="0.25"></line></g><g><line x1="0" y1="176" x2="255.21875" y2="176" fill="rgb(0, 0, 0)" stroke="rgb(66, 66, 66)" stroke-width="1px" opacity="0.25"></line><line x1="0" y1="163.42857142857142" x2="255.21875" y2="163.42857142857142" fill="rgb(0, 0, 0)" stroke="rgb(66, 66, 66)" stroke-width="1px" opacity="0.25"></line><line x1="0" y1="150.85714285714286" x2="255.21875" y2="150.85714285714286" fill="rgb(0, 0, 0)" stroke="rgb(66, 66, 66)" stroke-width="1px" opacity="0.25"></line><line x1="0" y1="138.28571428571428" x2="255.21875" y2="138.28571428571428" fill="rgb(0, 0, 0)" stroke="rgb(66, 66, 66)" stroke-width="1px" opacity="0.25"></line><line x1="0" y1="125.71428571428572" x2="255.21875" y2="125.71428571428572" fill="rgb(0, 0, 0)" stroke="rgb(66, 66, 66)" stroke-width="1px" opacity="0.25"></line><line x1="0" y1="113.14285714285714" x2="255.21875" y2="113.14285714285714" fill="rgb(0, 0, 0)" stroke="rgb(66, 66, 66)" stroke-width="1px" opacity="0.25"></line><line x1="0" y1="100.57142857142857" x2="255.21875" y2="100.57142857142857" fill="rgb(0, 0, 0)" stroke="rgb(66, 66, 66)" stroke-width="1px" opacity="0.25"></line><line x1="0" y1="87.99999999999999" x2="255.21875" y2="87.99999999999999" fill="rgb(0, 0, 0)" stroke="rgb(66, 66, 66)" stroke-width="1px" opacity="0.25"></line><line x1="0" y1="75.42857142857142" x2="255.21875" y2="75.42857142857142" fill="rgb(0, 0, 0)" stroke="rgb(66, 66, 66)" stroke-width="1px" opacity="0.25"></line><line x1="0" y1="62.85714285714287" x2="255.21875" y2="62.85714285714287" fill="rgb(0, 0, 0)" stroke="rgb(66, 66, 66)" stroke-width="1px" opacity="0.25"></line><line x1="0" y1="50.285714285714285" x2="255.21875" y2="50.285714285714285" fill="rgb(0, 0, 0)" stroke="rgb(66, 66, 66)" stroke-width="1px" opacity="0.25"></line><line x1="0" y1="37.714285714285694" x2="255.21875" y2="37.714285714285694" fill="rgb(0, 0, 0)" stroke="rgb(66, 66, 66)" stroke-width="1px" opacity="0.25"></line><line x1="0" y1="25.14285714285711" x2="255.21875" y2="25.14285714285711" fill="rgb(0, 0, 0)" stroke="rgb(66, 66, 66)" stroke-width="1px" opacity="0.25"></line><line x1="0" y1="12.571428571428585" x2="255.21875" y2="12.571428571428585" fill="rgb(0, 0, 0)" stroke="rgb(66, 66, 66)" stroke-width="1px" opacity="0.25"></line><line x1="0" y1="0" x2="255.21875" y2="0" fill="rgb(0, 0, 0)" stroke="rgb(66, 66, 66)" stroke-width="1px" opacity="0.25"></line></g></g></g><g><g><line x1="0" y1="289.1428571428571" x2="255.21875" y2="289.1428571428571" fill="rgb(0, 0, 0)" stroke="rgb(153, 153, 153)" stroke-width="1.5px"></line></g></g><g><g><line x1="17.014583333333334" y1="0" x2="17.014583333333334" y2="176" fill="rgb(0, 0, 0)" stroke="rgb(153, 153, 153)" stroke-width="1.5px"></line></g></g><g><g><g><g><g><path stroke="rgb(255, 112, 67)" stroke-width="2px" d="M28.0740625,-4.55329845892232L28.924791666666664,15.709642400002966L29.775520833333335,27.28431246169854L30.62625,37.263380800840785L31.476979166666666,42.98746294837994L32.327708333333334,47.13663681483184L33.1784375,53.692906940674604L34.02916666666667,56.917853620358855L34.87989583333333,59.365764517288476L35.730625,73.76126896492029L36.58135416666667,71.09424306039224L37.43208333333333,85.2051148941874L38.2828125,90.6692169321444L39.133541666666666,91.23014549283681L39.98427083333333,107.98323222341581L40.835,111.65749158545265L41.68572916666667,110.1415768052936L42.53645833333333,114.37484828953869L43.3871875,123.34577444004954L44.23791666666667,127.93989983055833L45.08864583333333,121.04783190324646L45.939375,120.01360088277139L46.790104166666666,123.22626555198767L47.64083333333333,123.250148590815L48.4915625,124.25958818017611L49.34229166666667,120.90442152360123L50.19302083333333,131.86273213282362L51.04375,133.7267904538272L51.89447916666667,128.8161624051075L52.74520833333333,134.25975922025248L53.5959375,127.41463007036818L54.44666666666667,124.38236610051362L55.29739583333333,128.91933899949865L56.148125,121.51513679409942L56.99885416666667,126.87890318567058L57.84958333333333,123.7425926316567L58.7003125,130.72363550772107L59.55104166666667,131.58025643073978L60.40177083333333,128.87423280468585L61.2525,134.675829786189L62.10322916666667,124.34159190371773L62.95395833333333,129.53699574505413L63.8046875,131.49198409101513L64.65541666666667,130.76903083432387L65.50614583333333,130.40218212396812L66.356875,123.33012090694537L67.20760416666666,121.90939656496161L68.05833333333334,121.71526843922544L68.9090625,124.60069477415131L69.75979166666666,127.20204172389197L70.61052083333334,127.47317014506493L71.46125,126.94602263365238L72.31197916666666,120.47376045393797L73.16270833333334,121.78015317035998L74.0134375,125.13759730083004L74.86416666666666,127.3042216647998L75.71489583333334,133.00167626010816L76.565625,137.1180006240709L77.41635416666666,131.70261206136706L78.26708333333333,131.66886047750367L79.1178125,131.07639471940274L79.96854166666667,121.99677499512653L80.81927083333333,126.90097054639774L81.67,133.19945204393798L82.52072916666665,134.3378593350795L83.37145833333334,132.70948071460577L84.2221875,131.21786578234992L85.07291666666666,135.14983294875174L85.92364583333334,132.2739015351834L86.774375,133.95337765487358L87.62510416666666,132.31992744676236L88.47583333333334,131.0013259299344L89.3265625,131.743803173595L90.17729166666666,134.60546214342574L91.02802083333334,141.5870267056765L91.87875,143.27934911356135L92.72947916666666,144.63135382919683L93.58020833333333,143.41349448963933L94.4309375,139.13557534510284L95.28166666666667,133.0275586431884L96.13239583333333,131.0519727800543L96.983125,133.51448129534538L97.83385416666667,135.76375798875836L98.68458333333334,141.06418850716796L99.5353125,140.80587061377756L100.38604166666666,139.6201354784001L101.23677083333334,142.7553478416L102.0875,141.880858015617L102.93822916666666,137.15751502013222L103.78895833333334,135.8265659363543L104.6396875,135.18240231837822L105.49041666666666,128.3256488067439L106.34114583333334,128.34422173464057L107.191875,129.62546468849376L108.04260416666666,132.27896382427878L108.89333333333335,131.41315849007597L109.7440625,124.33039710834196L110.59479166666667,128.59617275629893L111.44552083333333,135.439737315213L112.29625,134.98551360936227L113.14697916666667,136.79364129577263L113.99770833333334,133.2553815575321L114.8484375,129.87874589411837L115.69916666666666,125.42955298963524L116.54989583333334,119.52652060491985L117.400625,118.75158625034094L118.25135416666666,111.34059239822899L119.10208333333334,120.02724477375229L119.9528125,125.83385085810316L120.80354166666666,122.45987267685248L121.65427083333334,120.11289138091139L122.505,121.48468196855929L123.35572916666666,123.5026710708385L124.20645833333334,123.34730776681317L125.0571875,125.71044913678232L125.90791666666667,127.3261673094903L126.75864583333333,125.74933504627876L127.609375,127.73534483991956L128.46010416666667,129.3509415447544L129.31083333333333,122.54013764193073L130.1615625,115.67134837364546L131.01229166666667,116.53880221195539L131.86302083333334,116.69635290233802L132.71375,120.76171239469699L133.56447916666667,123.41807036551386L134.4152083333333,126.04479787917461L135.2659375,129.4163630035951L136.11666666666667,128.48664763137307L136.9673958333333,125.41732816521802L137.818125,126.86438870121012L138.66885416666668,129.67475722331895L139.51958333333332,128.72353283566548L140.3703125,131.75324061258877L141.22104166666668,128.00902719770983L142.07177083333332,125.92636508969392L142.9225,122.2061433780155L143.77322916666668,117.7985225602195L144.62395833333332,114.78401299024851L145.4746875,117.68264324829971L146.32541666666668,121.67909230126821L147.17614583333332,127.27809389432599L148.026875,134.91108486993167L148.87760416666669,130.74856828417214L149.72833333333332,136.15951712758272L150.5790625,130.14428885222887L151.4297916666667,124.761522017283L152.28052083333333,125.54190361300019L153.13125,129.6602780159817L153.9819791666667,127.49625687391027L154.83270833333333,125.60520584935226L155.6834375,128.07962072311125L156.53416666666666,131.00573262395852L157.38489583333333,131.78097658647536L158.235625,137.53903032120132L159.08635416666667,136.02341846179317L159.93708333333333,132.12501763008274L160.7878125,131.73039474394972L161.63854166666667,127.2452548266729L162.48927083333334,122.80757724769595L163.34,124.23210759903172L164.19072916666667,122.42390826396964L165.0414583333333,124.24665139519294L165.8921875,125.21563926834877L166.74291666666667,128.4495293689567L167.5936458333333,127.34893961250428L168.444375,130.1314939435018L169.29510416666668,121.44670349555227L170.14583333333331,121.12308525305059L170.9965625,126.73574909042244L171.84729166666668,132.1946917323525L172.69802083333332,127.3673056878174L173.54875,130.34322243777916L174.39947916666668,131.71362358241083L175.25020833333332,135.88867194427903L176.1009375,137.9418683774275L176.95166666666668,134.8592695397055L177.80239583333332,130.06208088749995L178.653125,129.99807976252734L179.50385416666668,131.59667595281627L180.35458333333332,138.20050251856958L181.2053125,141.26973142166528L182.0560416666667,137.82309146061723L182.90677083333333,138.64142408996503L183.7575,144.1009757460933L184.6082291666667,147.00162748262258L185.45895833333333,144.7493000663645L186.3096875,140.44811061843194L187.16041666666666,145.79828369512535L188.01114583333333,143.47637828014632L188.861875,140.19168162921187L189.71260416666667,139.71475528653505L190.56333333333333,142.1455520432611L191.4140625,146.05234367413127L192.26479166666667,145.3720031937017L193.11552083333333,142.5858366908378L193.96625,141.43262567309162L194.81697916666667,143.1267632512649L195.66770833333334,138.20633452176023L196.5184375,139.87301746715204L197.36916666666667,144.11607423336477L198.2198958333333,144.0657126123379L199.070625,142.97190312064285L199.92135416666667,149.3001748498986L200.7720833333333,155.1363860644355L201.6228125,155.55617800050277L202.47354166666668,154.19654239148167L203.32427083333332,156.11619826598837L204.175,151.2341612331417L205.02572916666668,154.42983482451464L205.87645833333332,152.01374586582062L206.7271875,155.54647412395403L207.57791666666668,157.9877360390522L208.42864583333332,153.3863202988104L209.279375,152.10675058546212L210.13010416666668,154.32052590206504L210.98083333333332,152.87774263133892L211.8315625,152.76365956593582L212.68229166666669,153.35698179049425L213.53302083333332,154.58298197601687L214.38375,153.3563260814983L215.2344791666667,153.20172646786546L216.08520833333333,150.26145995516472L216.9359375,154.69686046839803L217.7866666666667,154.44437795469366L218.63739583333333,156.2646748092553L219.488125,158.416511534516L220.33885416666666,160.86995650973046L221.18958333333333,158.5810168160054L222.0403125,165.56139723412795L222.89104166666667,163.5314445731199L223.74177083333333,162.8251149897924L224.5925,161.95361057448434L225.44322916666667,158.22202172679246L226.29395833333334,160.4832514555265L227.1446875,160.01868422216234L227.99541666666667,162.25170575184683L228.8461458333333,166.8269601159619L229.696875,165.51869035153123L230.54760416666667,166.32672648661455L231.3983333333333,167.56543920996515L232.2490625,167.2910354664829L233.09979166666668,164.18118041341938L233.95052083333331,164.27063905094187L234.80125,161.87646429560766L235.65197916666668,163.91039092349607L236.50270833333332,165.83694400877033L237.3534375,166.45503121906683L238.20416666666668,165.1255788837664L239.05489583333332,167.15844691347692L239.905625,165.2207815475645L240.75635416666668,165.68038489470888L241.60708333333332,163.36954714430237L242.4578125,168.29540500215978L243.30854166666668,168.97523907270264L244.15927083333332,167.4422109025918L245.01,173.75153738164406L245.8607291666667,173.54936497664835L246.71145833333333,173.45542560031984L247.5621875,167.51065014607295L248.4129166666667,165.92047456983676L249.26364583333333,166.74658370408642L250.114375,163.50946828531588L250.96510416666666,166.34501752653424L251.81583333333333,169.43824750848407L252.6665625,170.62307508900724L253.51729166666667,173.9834670686762L254.36802083333333,172.82687548950983L255.21875,173.12981929531244L256.06947916666667,173.43392070621576" style="fill: none;" fill="none"></path></g></g></g></g><g opacity="0.2"><g><g><g><path stroke="rgb(255, 112, 67)" stroke-width="2px" d="M26.372604166666665,-4.963115419660301L27.223333333333336,1.811563406671791L28.0740625,20.980483157294138L28.924791666666664,46.08023536205292L29.775520833333335,44.638154200145166L30.62625,52.22776050227028L31.476979166666666,51.57213282585144L32.327708333333334,53.35976552963257L33.1784375,63.52671286037989L34.02916666666667,61.755096776144846L34.87989583333333,63.03755031313215L35.730625,95.35424142224447L36.58135416666667,67.09373579706465L37.43208333333333,106.3713223508426L38.2828125,98.86534668718065L39.133541666666666,92.07153689861298L39.98427083333333,133.11283659934998L40.835,117.16887724399567L41.68572916666667,107.86770547287804L42.53645833333333,120.7247541121074L43.3871875,136.80216188090188L44.23791666666667,134.83108736787523L45.08864583333333,110.7097305059433L45.939375,118.46225439650671L46.790104166666666,128.04526247297014L47.64083333333333,123.28597314868654L48.4915625,125.77374755484716L49.34229166666667,115.87167155742645L50.19302083333333,148.30019801003593L51.04375,136.52287793159485L51.89447916666667,121.45022033793585L52.74520833333333,142.4251544390406L53.5959375,117.14693634850637L54.44666666666667,119.83397014651979L55.29739583333333,135.72479834726877L56.148125,110.40883348669323L56.99885416666667,134.92455277272632L57.84958333333333,119.03812680074147L58.7003125,141.1951998216765L59.55104166666667,132.86518781525749L60.40177083333333,124.81519736562456L61.2525,143.3782252584185L62.10322916666667,108.8402350800378L62.95395833333333,137.33010150705064L63.8046875,134.42446660995483L64.65541666666667,129.68460094928741L65.50614583333333,129.85190905843461L66.356875,112.72202908141271L67.20760416666666,119.77831005198614L68.05833333333334,121.42407625062124L68.9090625,128.92883427653993L69.75979166666666,131.1040621485029L70.61052083333334,127.8798627768244L71.46125,126.15530136653355L72.31197916666666,110.7653671843665L73.16270833333334,123.73974224499294L74.0134375,130.17376349653514L74.86416666666666,130.5541582107544L75.71489583333334,141.5478581530707L76.565625,143.29248717001505L77.41635416666666,123.5795292173113L78.26708333333333,131.61823310170854L79.1178125,130.1876960822514L79.96854166666667,108.37734540871212L80.81927083333333,134.25726387330462L81.67,142.64717429024833L82.52072916666665,136.04547027179171L83.37145833333334,130.26691278389524L84.2221875,128.9804433839662L85.07291666666666,141.04778369835444L85.92364583333334,127.96000441483089L86.774375,136.4725918344089L87.62510416666666,129.86975213459561L88.47583333333334,129.0234236546925L89.3265625,132.85751903908593L90.17729166666666,138.89795059817178L91.02802083333334,152.05937354905265L91.87875,145.81783272538866L92.72947916666666,146.65936090265L93.58020833333333,141.58670548030307L94.4309375,132.71869662829806L95.28166666666667,123.86553359031677L96.13239583333333,128.0885939853532L96.983125,137.20824406828197L97.83385416666667,139.1376730288778L98.68458333333334,149.0148342847824L99.5353125,140.41839377369197L100.38604166666666,137.84153277533395L101.23677083333334,147.45816638639994L102.0875,140.5691232766424L102.93822916666666,130.07250052690506L103.78895833333334,133.83014231068748L104.6396875,134.2161568914141L105.49041666666666,118.04051853929246L106.34114583333334,128.37208112648557L107.191875,131.5473291192736L108.04260416666666,136.25921252795627L108.89333333333335,130.1144504887717L109.7440625,113.70625503574098L110.59479166666667,134.99483622823442L111.44552083333333,145.70508415358407L112.29625,134.30417805058616L113.14697916666667,139.5058328253882L113.99770833333334,127.94799195017131L114.8484375,124.8137923989977L115.69916666666666,118.75576363291057L116.54989583333334,110.67197202784673L117.400625,117.58918471847261L118.25135416666666,100.22410162006105L119.10208333333334,133.05722333703721L119.9528125,134.54375998462947L120.80354166666666,117.39890540497643L121.65427083333334,116.59241943699972L122.505,123.54236785003117L123.35572916666666,126.52965472425731L124.20645833333334,123.1142628107752L125.0571875,129.25516119173597L125.90791666666667,129.74974456855227L126.75864583333333,123.38408665146144L127.609375,130.7143595303808L128.46010416666667,131.77433660200666L129.31083333333333,112.3239317876952L130.1615625,105.36816447121755L131.01229166666667,117.83998296942028L131.86302083333334,116.93267893791199L132.71375,126.85975163323538L133.56447916666667,127.4026073217392L134.4152083333333,129.98488914966583L135.2659375,134.47371069022586L136.11666666666667,127.09207457304001L136.9673958333333,120.81334896598543L137.818125,129.03497950519832L138.66885416666668,133.89031000648225L139.51958333333332,127.29669625418526L140.3703125,136.29780227797372L141.22104166666668,122.3927070753915L142.07177083333332,122.80237192767007L142.9225,116.62581081049782L143.77322916666668,111.1870913335255L144.62395833333332,110.26224863529205L145.4746875,122.03058863537652L146.32541666666668,127.67376588072094L147.17614583333332,135.67659628391266L148.026875,146.36057133334023L148.87760416666669,124.50479340553284L149.72833333333332,144.27594039269854L150.5790625,121.12144643919808L151.4297916666667,116.68737176486424L152.28052083333333,126.71247600657598L153.13125,135.83783962045396L153.9819791666667,124.25022516080311L154.83270833333333,122.76862931251526L155.6834375,131.7912430337497L156.53416666666666,135.39490047522952L157.38489583333333,132.94384253025055L158.235625,146.17611092329025L159.08635416666667,133.75000067268098L159.93708333333333,126.27741638251713L160.7878125,131.13846041475023L161.63854166666667,120.51754495075771L162.48927083333334,116.1510608792305L163.34,126.36890312603542L164.19072916666667,119.71160926137651L165.0414583333333,126.98076609202793L165.8921875,126.66912107808248L166.74291666666667,133.30036451986857L167.5936458333333,125.6980549778257L168.444375,134.3053254399981L169.29510416666668,108.41951782362801L170.14583333333331,120.63765788929803L170.9965625,135.1547448464802L171.84729166666668,140.38310569524765L172.69802083333332,120.12622662101472L173.54875,134.8070975627218L174.39947916666668,133.76922529935837L175.25020833333332,142.15124448708124L176.1009375,141.02166302715028L176.95166666666668,130.23537128312248L177.80239583333332,122.86629790919167L178.653125,129.90207807506832L179.50385416666668,133.99457023824962L180.35458333333332,148.10624236719948L181.2053125,145.87357477630886L182.0560416666667,132.65313151904513L182.90677083333333,139.86892303398676L183.7575,152.29030323028564L184.6082291666667,151.3526050874165L185.45895833333333,141.37080894197734L186.3096875,133.9963264465332L187.16041666666666,153.8235433101654L188.01114583333333,139.99352015767778L188.861875,135.26463665281022L189.71260416666667,138.99936577251978L190.56333333333333,145.79174717835016L191.4140625,151.9125311204365L192.26479166666667,144.35149247305733L193.11552083333333,138.40658693654197L193.96625,139.7028091464724L194.81697916666667,145.6679696185248L195.66770833333334,130.82569142750333L196.5184375,142.37304188523973L197.36916666666667,150.48065938268388L198.2198958333333,143.99017018079758L199.070625,141.33118888310022L199.92135416666667,158.79258244378227L200.7720833333333,163.8907028862408L201.6228125,156.18586590460367L202.47354166666668,152.15708897794994L203.32427083333332,158.99568207774843L204.175,143.91110568387168L205.02572916666668,159.223345211574L205.87645833333332,148.3896124277796L206.7271875,160.84556651115417L207.57791666666668,161.64962891169955L208.42864583333332,146.48419668844767L209.279375,150.1873960154397L210.13010416666668,157.64118887696947L210.98083333333332,150.7135677252497L211.8315625,152.5925349678312L212.68229166666669,154.24696512733186L213.53302083333332,156.4219822543008L214.38375,151.51634223972047L215.2344791666667,152.96982704741615L216.08520833333333,145.8510601861136L216.9359375,161.349961238248L217.7866666666667,154.06565418413706L218.63739583333333,158.99512009109768L219.488125,161.6442666224071L220.33885416666666,164.55012397255214L221.18958333333333,155.14760727541787L222.0403125,176.03196786131176L222.89104166666667,160.48651558160782L223.74177083333333,161.76562061480112L224.5925,160.6463539515223L225.44322916666667,152.62463845525468L226.29395833333334,163.87509604862757L227.1446875,159.3218333721161L227.99541666666667,165.60123804637362L228.8461458333333,173.68984166213443L229.696875,163.5562857048852L230.54760416666667,167.5387806892395L231.3983333333333,169.42350829499108L232.2490625,166.8794298512595L233.09979166666668,159.51639783382416L233.95052083333331,164.40482700722558L234.80125,158.28520216260637L235.65197916666668,166.96128086532863L236.50270833333332,168.72677363668168L237.3534375,167.38216203451157L238.20416666666668,163.13140038081576L239.05489583333332,170.20774895804269L239.905625,162.31428349869591L240.75635416666668,166.36978991542543L241.60708333333332,159.90329051869256L242.4578125,175.68419178894587L243.30854166666668,169.99499017851693L244.15927083333332,165.1426686474255L245.01,183.21552710022243L245.8607291666667,173.24610636915477L246.71145833333333,173.3145165358271L247.5621875,158.5934869647026L248.4129166666667,163.53521120548248L249.26364583333333,167.9857474054609L250.114375,158.65379515716006L250.96510416666666,170.59834138836177L251.81583333333333,174.0780924814088L252.6665625,172.40031645979198L253.51729166666667,179.02405503817965L254.36802083333333,171.09198812076022L255.21875,173.58423500401634L256.06947916666667,173.8900728225708" style="fill: none;" fill="none"></path></g></g></g></g></g><g><g opacity="0.25295"><span fill="rgb(0, 0, 0)" stroke="none" stroke-width="1px">Alt + Scroll to Zoom</span></g></g></g><g transform="translate(74, 176)" clip-path="url(#clip_1)"><clipPath id="clip_1"><rect width="255" height="24"></rect></clipPath><g><g><line x1="0" y1="0" x2="0" y2="5" style="visibility: inherit;" fill="rgb(0, 0, 0)" stroke="rgb(204, 204, 204)" stroke-width="1px"></line><line x1="17.014583333333334" y1="0" x2="17.014583333333334" y2="5" style="visibility: inherit;" fill="rgb(0, 0, 0)" stroke="rgb(204, 204, 204)" stroke-width="1px"></line><line x1="34.02916666666667" y1="0" x2="34.02916666666667" y2="5" style="visibility: inherit;" fill="rgb(0, 0, 0)" stroke="rgb(204, 204, 204)" stroke-width="1px"></line><line x1="51.04375" y1="0" x2="51.04375" y2="5" style="visibility: inherit;" fill="rgb(0, 0, 0)" stroke="rgb(204, 204, 204)" stroke-width="1px"></line><line x1="68.05833333333334" y1="0" x2="68.05833333333334" y2="5" style="visibility: inherit;" fill="rgb(0, 0, 0)" stroke="rgb(204, 204, 204)" stroke-width="1px"></line><line x1="85.07291666666666" y1="0" x2="85.07291666666666" y2="5" style="visibility: inherit;" fill="rgb(0, 0, 0)" stroke="rgb(204, 204, 204)" stroke-width="1px"></line><line x1="102.0875" y1="0" x2="102.0875" y2="5" style="visibility: inherit;" fill="rgb(0, 0, 0)" stroke="rgb(204, 204, 204)" stroke-width="1px"></line><line x1="119.10208333333334" y1="0" x2="119.10208333333334" y2="5" style="visibility: inherit;" fill="rgb(0, 0, 0)" stroke="rgb(204, 204, 204)" stroke-width="1px"></line><line x1="136.11666666666667" y1="0" x2="136.11666666666667" y2="5" style="visibility: inherit;" fill="rgb(0, 0, 0)" stroke="rgb(204, 204, 204)" stroke-width="1px"></line><line x1="153.13125" y1="0" x2="153.13125" y2="5" style="visibility: inherit;" fill="rgb(0, 0, 0)" stroke="rgb(204, 204, 204)" stroke-width="1px"></line><line x1="170.14583333333331" y1="0" x2="170.14583333333331" y2="5" style="visibility: inherit;" fill="rgb(0, 0, 0)" stroke="rgb(204, 204, 204)" stroke-width="1px"></line><line x1="187.16041666666666" y1="0" x2="187.16041666666666" y2="5" style="visibility: inherit;" fill="rgb(0, 0, 0)" stroke="rgb(204, 204, 204)" stroke-width="1px"></line><line x1="204.175" y1="0" x2="204.175" y2="5" style="visibility: inherit;" fill="rgb(0, 0, 0)" stroke="rgb(204, 204, 204)" stroke-width="1px"></line><line x1="221.18958333333333" y1="0" x2="221.18958333333333" y2="5" style="visibility: inherit;" fill="rgb(0, 0, 0)" stroke="rgb(204, 204, 204)" stroke-width="1px"></line><line x1="238.20416666666668" y1="0" x2="238.20416666666668" y2="5" style="visibility: inherit;" fill="rgb(0, 0, 0)" stroke="rgb(204, 204, 204)" stroke-width="1px"></line><line x1="255.21875" y1="0" x2="255.21875" y2="5" style="visibility: inherit;" fill="rgb(0, 0, 0)" stroke="rgb(204, 204, 204)" stroke-width="1px"></line></g><g transform="translate(0, 8)"><text x="0" y="0" dx="0em" dy="0.95em" style="text-anchor: middle; visibility: hidden; font-family: Roboto, sans-serif; font-size: 12px; font-weight: 200;" fill="rgb(33, 33, 33)" stroke="none" stroke-width="1px">-20</text><text x="17.014583333333334" y="0" dx="0em" dy="0.95em" style="text-anchor: middle; visibility: inherit; font-family: Roboto, sans-serif; font-size: 12px; font-weight: 200;" fill="rgb(33, 33, 33)" stroke="none" stroke-width="1px">0</text><text x="34.02916666666667" y="0" dx="0em" dy="0.95em" style="text-anchor: middle; visibility: hidden; font-family: Roboto, sans-serif; font-size: 12px; font-weight: 200;" fill="rgb(33, 33, 33)" stroke="none" stroke-width="1px">20</text><text x="51.04375" y="0" dx="0em" dy="0.95em" style="text-anchor: middle; visibility: inherit; font-family: Roboto, sans-serif; font-size: 12px; font-weight: 200;" fill="rgb(33, 33, 33)" stroke="none" stroke-width="1px">40</text><text x="68.05833333333334" y="0" dx="0em" dy="0.95em" style="text-anchor: middle; visibility: hidden; font-family: Roboto, sans-serif; font-size: 12px; font-weight: 200;" fill="rgb(33, 33, 33)" stroke="none" stroke-width="1px">60</text><text x="85.07291666666666" y="0" dx="0em" dy="0.95em" style="text-anchor: middle; visibility: inherit; font-family: Roboto, sans-serif; font-size: 12px; font-weight: 200;" fill="rgb(33, 33, 33)" stroke="none" stroke-width="1px">80</text><text x="102.0875" y="0" dx="0em" dy="0.95em" style="text-anchor: middle; visibility: hidden; font-family: Roboto, sans-serif; font-size: 12px; font-weight: 200;" fill="rgb(33, 33, 33)" stroke="none" stroke-width="1px">100</text><text x="119.10208333333334" y="0" dx="0em" dy="0.95em" style="text-anchor: middle; visibility: inherit; font-family: Roboto, sans-serif; font-size: 12px; font-weight: 200;" fill="rgb(33, 33, 33)" stroke="none" stroke-width="1px">120</text><text x="136.11666666666667" y="0" dx="0em" dy="0.95em" style="text-anchor: middle; visibility: hidden; font-family: Roboto, sans-serif; font-size: 12px; font-weight: 200;" fill="rgb(33, 33, 33)" stroke="none" stroke-width="1px">140</text><text x="153.13125" y="0" dx="0em" dy="0.95em" style="text-anchor: middle; visibility: inherit; font-family: Roboto, sans-serif; font-size: 12px; font-weight: 200;" fill="rgb(33, 33, 33)" stroke="none" stroke-width="1px">160</text><text x="170.14583333333331" y="0" dx="0em" dy="0.95em" style="text-anchor: middle; visibility: hidden; font-family: Roboto, sans-serif; font-size: 12px; font-weight: 200;" fill="rgb(33, 33, 33)" stroke="none" stroke-width="1px">180</text><text x="187.16041666666666" y="0" dx="0em" dy="0.95em" style="text-anchor: middle; visibility: inherit; font-family: Roboto, sans-serif; font-size: 12px; font-weight: 200;" fill="rgb(33, 33, 33)" stroke="none" stroke-width="1px">200</text><text x="204.175" y="0" dx="0em" dy="0.95em" style="text-anchor: middle; visibility: hidden; font-family: Roboto, sans-serif; font-size: 12px; font-weight: 200;" fill="rgb(33, 33, 33)" stroke="none" stroke-width="1px">220</text><text x="221.18958333333333" y="0" dx="0em" dy="0.95em" style="text-anchor: middle; visibility: inherit; font-family: Roboto, sans-serif; font-size: 12px; font-weight: 200;" fill="rgb(33, 33, 33)" stroke="none" stroke-width="1px">240</text><text x="238.20416666666668" y="0" dx="0em" dy="0.95em" style="text-anchor: middle; visibility: hidden; font-family: Roboto, sans-serif; font-size: 12px; font-weight: 200;" fill="rgb(33, 33, 33)" stroke="none" stroke-width="1px">260</text><text x="255.21875" y="0" dx="0em" dy="0.95em" style="text-anchor: middle; visibility: hidden; font-family: Roboto, sans-serif; font-size: 12px; font-weight: 200;" fill="rgb(33, 33, 33)" stroke="none" stroke-width="1px">280</text></g><line x1="0" y1="0" x2="255.21875" y2="0" fill="rgb(0, 0, 0)" stroke="rgb(204, 204, 204)" stroke-width="1px"></line></g></g></g></g></svg>